<?xml version="1.0" encoding="UTF-8"?>
<svg width="21px" height="20px" viewBox="0 0 21 20" version="1.1" xmlns="http://www.w3.org/2000/svg" xmlns:xlink="http://www.w3.org/1999/xlink">
    <title>增加</title>
    <defs>
        <filter color-interpolation-filters="auto" id="filter-1">
            <feColorMatrix in="SourceGraphic" type="matrix" values="0 0 0 0 0.168627 0 0 0 0 0.513725 0 0 0 0 0.980392 0 0 0 1.000000 0"></feColorMatrix>
        </filter>
    </defs>
    <g id="客户备份" stroke="none" stroke-width="1" fill="none" fill-rule="evenodd">
        <g id="增加" transform="translate(-336.000000, -106.000000)" filter="url(#filter-1)">
            <g transform="translate(336.500000, 106.000000)">
                <rect id="矩形" fill="#000000" fill-rule="nonzero" opacity="0" x="0" y="0" width="20" height="20"></rect>
                <path d="M10,18.3333333 C5.39770834,18.3333333 1.66666666,14.6022917 1.66666666,10 C1.66666666,5.39770834 5.39770834,1.66666666 10,1.66666666 C14.6022917,1.66666666 18.3333333,5.39770832 18.3333333,10 C18.3333333,14.6022917 14.6022917,18.3333333 10,18.3333333 Z M10,17.0833333 C13.9120833,17.0833333 17.0833333,13.9120833 17.0833333,10 C17.0833333,6.08791666 13.9120833,2.91666666 10,2.91666666 C6.08791666,2.91666666 2.91666666,6.08791666 2.91666666,10 C2.91666666,13.9120833 6.08791666,17.0833333 10,17.0833333 Z M10.625,9.375 L13.125,9.375 C13.470178,9.375 13.75,9.65482203 13.75,10 C13.75,10.345178 13.470178,10.625 13.125,10.625 L10.625,10.625 L10.625,13.125 C10.625,13.470178 10.345178,13.75 10,13.75 C9.65482203,13.75 9.375,13.470178 9.375,13.125 L9.375,10.625 L6.875,10.625 C6.52982203,10.625 6.25,10.345178 6.25,10 C6.25,9.65482203 6.52982203,9.375 6.875,9.375 L9.375,9.375 L9.375,6.875 C9.375,6.52982203 9.65482203,6.25 10,6.25 C10.345178,6.25 10.625,6.52982203 10.625,6.875 L10.625,9.375 Z" id="形状" fill="#000000" fill-rule="nonzero"></path>
            </g>
        </g>
    </g>
</svg>