<?xml version="1.0" standalone="no"?><!DOCTYPE svg PUBLIC "-//W3C//DTD SVG 1.1//EN" "http://www.w3.org/Graphics/SVG/1.1/DTD/svg11.dtd"><svg t="1607779096617" class="icon" viewBox="0 0 1024 1024" version="1.1" xmlns="http://www.w3.org/2000/svg" p-id="1142" xmlns:xlink="http://www.w3.org/1999/xlink" width="16" height="16"><defs><style type="text/css"></style></defs><path d="M512 0c235.633778 0 426.666667 191.032889 426.666667 426.666667 0 135.793778-73.813333 277.617778-194.247111 411.505777l-12.373334 13.539556-12.629333 13.368889-12.8 13.169778-12.942222 12.885333-12.999111 12.600889-6.485334 6.144-12.970666 12.032-12.885334 11.605333-12.714666 11.093334-12.515556 10.609777-12.231111 10.040889-11.889778 9.386667-11.52 8.732444c-3.754667 2.787556-7.424 5.461333-11.036444 8.021334l-10.524445 7.253333-9.927111 6.428444c-19.256889 12.032-34.645333 18.915556-43.975111 18.915556-8.533333 0-22.158222-5.831111-39.168-16.128l-9.614222-6.087111a406.897778 406.897778 0 0 1-5.063111-3.328l-10.496-7.310222-11.036445-8.078223-11.491555-8.817777-11.889778-9.472-6.087111-4.977778-12.373334-10.382222-12.629333-10.951111-12.8-11.463112-12.970667-11.889777a1247.488 1247.488 0 0 1-6.485333-6.115556l-12.999111-12.515555-6.513778-6.371556-12.942222-12.999111-12.828444-13.255111-12.657778-13.482667-12.430222-13.624889C159.175111 702.321778 85.333333 560.839111 85.333333 426.666667 85.333333 191.032889 276.366222 0 512 0z m0 227.555556a199.111111 199.111111 0 1 0 0 398.222222 199.111111 199.111111 0 0 0 0-398.222222z m0 56.888888a142.222222 142.222222 0 1 1 0 284.444445 142.222222 142.222222 0 0 1 0-284.444445z" p-id="1143"></path></svg>