<?xml version="1.0" encoding="UTF-8"?>
<svg width="13px" height="12px" viewBox="0 0 13 12" version="1.1" xmlns="http://www.w3.org/2000/svg" xmlns:xlink="http://www.w3.org/1999/xlink">
    <title>形状</title>
    <g id="客户备份" stroke="none" stroke-width="1" fill="none" fill-rule="evenodd">
        <g id="客户" transform="translate(-306.000000, -148.000000)" fill="#666F83" fill-rule="nonzero">
            <path d="M306.000154,153.390242 C306.000154,153.132238 306.206773,152.923158 306.4617,152.923158 C306.716627,152.923158 306.923246,153.132392 306.923246,153.390242 L306.923246,157.95401 C306.923246,158.040011 306.99217,158.109705 307.077095,158.109705 C307.102512,158.109719 307.127529,158.103372 307.149865,158.091243 L309.383286,156.879377 C309.712476,156.700468 310.111427,156.707536 310.434073,156.897992 L314.076594,159.044797 C314.121248,159.071193 314.176266,159.073048 314.222597,159.04972 L317.29957,157.502618 C317.351879,157.476309 317.384956,157.422309 317.384956,157.363231 L317.384956,153.390242 C317.384956,153.132238 317.591575,152.923158 317.846502,152.923158 C318.10143,152.923158 318.308048,153.132392 318.308048,153.390242 L318.308048,157.363231 C318.308048,157.77693 318.076506,158.154936 317.710346,158.339093 L314.633373,159.886195 C314.309304,160.049314 313.924516,160.036388 313.612125,159.851887 L309.96945,157.70539 C309.923363,157.67814 309.866353,157.677088 309.819293,157.702621 L307.585872,158.914641 C307.429643,158.999442 307.254701,159.043865 307.076941,159.043874 C306.482162,159.043874 306,158.556173 306,157.954163 L306,153.390242 L306.000154,153.390242 Z M315.692621,151.482519 C315.692621,152.749001 314.637219,154.265026 312.561954,156.102133 C312.329101,156.308216 311.979101,156.308216 311.746248,156.102133 C309.67083,154.26518 308.615581,152.749001 308.615581,151.482519 C308.615581,149.557256 310.201761,148 312.154101,148 C314.106441,148 315.692621,149.557256 315.692621,151.482519 Z M309.538674,151.482519 C309.538674,152.369764 310.399918,153.639631 312.154101,155.228273 C313.908284,153.639631 314.769529,152.369764 314.769529,151.482519 C314.769529,150.070957 313.600433,148.923092 312.154101,148.923092 C310.70777,148.923092 309.538674,150.070803 309.538674,151.482519 Z M312.154101,152.461612 C311.644291,152.461612 311.231009,152.048329 311.231009,151.53852 C311.231009,151.02871 311.644291,150.615428 312.154101,150.615428 C312.663911,150.615428 313.077193,151.02871 313.077193,151.53852 C313.077193,152.048329 312.663911,152.461612 312.154101,152.461612 Z" id="形状"></path>
        </g>
    </g>
</svg>