<?xml version="1.0" standalone="no"?><!DOCTYPE svg PUBLIC "-//W3C//DTD SVG 1.1//EN" "http://www.w3.org/Graphics/SVG/1.1/DTD/svg11.dtd"><svg t="1611826039377" class="icon" viewBox="0 0 1024 1024" version="1.1" xmlns="http://www.w3.org/2000/svg" p-id="1793" xmlns:xlink="http://www.w3.org/1999/xlink" width="200" height="200"><defs><style type="text/css"></style></defs><path d="M967.111111 0a56.888889 56.888889 0 0 1 56.888889 56.888889v910.222222a56.888889 56.888889 0 0 1-56.888889 56.888889H56.888889a56.888889 56.888889 0 0 1-56.888889-56.888889V56.888889a56.888889 56.888889 0 0 1 56.888889-56.888889h910.222222z m-257.991111 230.684444l-1.934222 0.341334-313.571556 89.144889a13.824 13.824 0 0 0-9.614222 12.657777v127.914667l2.56-0.768 0.028444 238.193778c-14.222222-7.509333-33.479111-9.386667-53.105777-3.811556-34.702222 9.870222-57.400889 39.338667-50.716445 65.820445 6.684444 26.510222 40.248889 39.992889 74.951111 30.122666 29.752889-8.448 50.688-31.317333 51.825778-54.357333h2.616889v-283.221333l279.04-79.331556 0.028444 271.530667c-13.710222-5.802667-31.004444-6.826667-48.611555-1.592889-34.986667 10.353778-57.856 41.301333-51.114667 69.12 6.769778 27.818667 40.590222 41.955556 75.576889 31.601778 34.986667-10.353778 57.856-41.272889 51.114667-69.12a40.988444 40.988444 0 0 0-1.365334-4.408889L716.8 238.193778c0-5.319111-4.295111-8.675556-9.614222-7.168z" fill="#0CC69C" p-id="1794"></path></svg>