<?xml version="1.0" standalone="no"?><!DOCTYPE svg PUBLIC "-//W3C//DTD SVG 1.1//EN" "http://www.w3.org/Graphics/SVG/1.1/DTD/svg11.dtd"><svg t="1606813266611" class="icon" viewBox="0 0 1024 1024" version="1.1" xmlns="http://www.w3.org/2000/svg" p-id="7968" xmlns:xlink="http://www.w3.org/1999/xlink" width="200" height="200"><defs><style type="text/css"></style></defs><path d="M819.328 635.6224a4.352 4.352 0 0 0 0.7168-0.9728l0.5888-0.6656 0.8448-1.152 0.4608-0.6912c0.1536-0.4352 0.5632-0.7936 0.7424-1.2032a3.328 3.328 0 0 1 0.4352-0.6144l0.64-1.2544c0.1024-0.256 0.2816-0.4608 0.4352-0.6656l0.5888-1.152a1.4848 1.4848 0 0 1 0.4096-0.7936 4.2752 4.2752 0 0 0 0.4352-1.1264l0.4608-0.896 0.3328-0.9984 0.3584-1.152 0.3328-0.8448 0.4608-1.1264 0.2304-0.8448 0.3328-1.28c0.128-0.2048 0.128-0.4352 0.128-0.6656l0.3072-1.4336 0.128-0.7168a6.9632 6.9632 0 0 0 0.2304-1.4336v-0.9216c0.1792-0.384 0.1792-0.8448 0.1792-1.2544l0.1024-1.1264 0.128-1.152 0.128-2.1248c0-0.6912 0-1.4848-0.128-2.176l-0.128-1.1264c0-0.2304 0-0.6912-0.1024-1.024l-0.128-1.3056-0.0512-0.8704-0.2304-1.408-0.128-0.7936-0.3072-1.3824c-0.128-0.2304-0.128-0.4608-0.128-0.6656l-0.3328-1.3312-0.2304-0.7168a4.5056 4.5056 0 0 0-0.4608-1.2032l-0.3328-0.9216-0.3584-1.1264-0.3328-0.9216-0.4608-1.024-0.4352-1.152c-0.128-0.0768-0.2304-0.5632-0.4608-0.6656l-0.5888-1.152a1.7408 1.7408 0 0 0-0.384-0.6656l-0.64-1.2544-0.4352-0.5888c-0.2304-0.4864-0.5888-0.8448-0.7424-1.2288l-0.4608-0.6912-0.8448-1.152-0.5888-0.7168-0.7168-0.9216-0.7936-0.896-0.7168-0.7936c-0.5376-0.5888-0.896-1.1264-1.4592-1.6128l-1.7152-1.536-0.6656-0.6144-0.9216-0.7936a7.9872 7.9872 0 0 0-0.9472-0.7424l-0.64-0.5632-1.2032-0.9216-0.6912-0.4096c-0.4352-0.1536-0.768-0.5376-1.1776-0.7168a2.2784 2.2784 0 0 1-0.6144-0.4608l-1.2544-0.6912a1.7408 1.7408 0 0 1-0.6912-0.4608l-1.1264-0.5632a1.536 1.536 0 0 1-0.8192-0.3328c-0.3328-0.2304-0.7424-0.3328-1.1264-0.4352l-0.9216-0.4864-0.9728-0.3328c-0.3072-0.1024-0.7936-0.3328-1.1264-0.384l-0.8448-0.3584-1.152-0.384-0.8448-0.2304-1.2544-0.3584-0.7936-0.2304-1.3824-0.3072-0.768-0.128a6.9632 6.9632 0 0 0-1.4336-0.2304l-0.8448-0.0512c-0.4608-0.128-0.9216-0.128-1.3312-0.128l-1.1264-0.1024-0.9216-0.128-2.2784-0.1024H241.4848a44.7232 44.7232 0 1 0 0 89.3696h435.4048l-28.3648 28.4416a44.6976 44.6976 0 0 0-3.4304 63.0784 44.7232 44.7232 0 0 0 66.5344-0.0256l104.6272-104.5248 1.4848-1.7152 0.6656-0.6656 0.9216-1.024zM194.6112 419.84c0 0.2816 0 0.7424 0.128 1.1264l0.1024 1.2544 0.128 0.9216 0.2304 1.3568 0.1024 0.7936 0.3328 1.3568 0.128 0.6912 0.3328 1.3312c0.128 0.2048 0.128 0.5376 0.1792 0.7168a3.0208 3.0208 0 0 0 0.4608 1.2032l0.3328 0.896 0.384 1.152 0.3584 0.896 0.4608 1.024 0.384 1.152c0.128 0.1024 0.2304 0.5632 0.4608 0.6912l0.5632 1.1264a2.048 2.048 0 0 0 0.4608 0.6912l0.6144 1.2288c0.1024 0.2304 0.256 0.4096 0.4096 0.5888l0.7936 1.2544 0.4608 0.6912 0.8448 1.1264 0.5888 0.7424 0.7168 0.896 0.8192 0.9216 0.5632 0.7936 1.5872 1.5872 1.6384 1.536 0.7424 0.6912 0.8704 0.7424a3.2512 3.2512 0 0 0 1.024 0.7168l0.6144 0.5888 1.1776 0.896 0.6912 0.4096c0.4608 0.1536 0.7424 0.5632 1.152 0.7424a2.9184 2.9184 0 0 1 0.6912 0.4608l1.1264 0.6656c0.2816 0.128 0.512 0.2304 0.7424 0.4608l1.1776 0.5632c0.2304 0 0.5888 0.128 0.7424 0.3584a5.2992 5.2992 0 0 0 1.152 0.4352l0.896 0.4608 1.024 0.3328c0.3584 0.128 0.7936 0.3584 1.1264 0.4096l0.8192 0.3328 1.2544 0.4096c0.2048 0.1024 0.5632 0.1024 0.7168 0.2304l1.3312 0.3328 0.7168 0.2304 1.4336 0.3328 0.7424 0.128a5.76 5.76 0 0 0 1.4848 0.2048l0.7936 0.0768a4.7872 4.7872 0 0 0 1.3568 0.1024l1.1264 0.128 0.9216 0.1024 2.2784 0.1024h543.1296a44.672 44.672 0 0 0 0-89.344h-435.2l28.2624-28.4672a44.6464 44.6464 0 1 0-63.104-62.976l-104.5504 104.3968-1.536 1.7152-0.6144 0.6656-0.7936 0.9216a7.4752 7.4752 0 0 0-0.8192 0.9728l-0.5376 0.6656-0.8192 1.152-0.4352 0.6912-0.8192 1.2544c-0.1024 0.1536-0.2048 0.384-0.4608 0.5632l-0.5632 1.2544a2.304 2.304 0 0 1-0.4352 0.6656c-0.2304 0.4096-0.4608 0.6912-0.5888 1.152-0.1024 0.2048-0.2048 0.5632-0.4352 0.7936-0.256 0.3328-0.2816 0.7424-0.4096 1.1264l-0.4608 0.9216-0.3328 0.9728-0.4096 1.1264-0.3328 0.8448-0.4608 1.2032c-0.1024 0.2304-0.1024 0.5888-0.1536 0.7936l-0.3584 1.2544c-0.1024 0.2304-0.1024 0.4608-0.1024 0.6912l-0.3584 1.408-0.1024 0.7424a6.9632 6.9632 0 0 0-0.2304 1.4336l-0.1024 0.896c-0.128 0.4096-0.128 0.8704-0.128 1.2544l-0.1024 1.152-0.128 1.1264-0.1024 2.1504c0 0.6912 0 1.4848 0.1024 2.176-0.1024 0.5632 0 0.8448 0 1.1264v0.1792-0.0512zM0 512C0 229.2224 229.2224 0 512 0s512 229.2224 512 512-229.2224 512-512 512S0 794.7776 0 512z" p-id="7969"></path></svg>