<?xml version="1.0" standalone="no"?><!DOCTYPE svg PUBLIC "-//W3C//DTD SVG 1.1//EN" "http://www.w3.org/Graphics/SVG/1.1/DTD/svg11.dtd"><svg t="1611884472505" class="icon" viewBox="0 0 1024 1024" version="1.1" xmlns="http://www.w3.org/2000/svg" p-id="7478" xmlns:xlink="http://www.w3.org/1999/xlink" width="200" height="200"><defs><style type="text/css"></style></defs><path d="M0 0m56.888889 0l910.222222 0q56.888889 0 56.888889 56.888889l0 910.222222q0 56.888889-56.888889 56.888889l-910.222222 0q-56.888889 0-56.888889-56.888889l0-910.222222q0-56.888889 56.888889-56.888889Z" fill="#EC5D78" p-id="7479"></path><path d="M670.008889 761.685333h-316.017778A69.660444 69.660444 0 0 1 284.444444 692.138667V325.546667A69.660444 69.660444 0 0 1 353.962667 256h255.004444c11.662222-0.085333 22.897778 4.465778 31.232 12.657778l93.667556 93.667555c3.697778 3.612444 5.745778 8.590222 5.688889 13.767111v316.046223a69.660444 69.660444 0 0 1-69.546667 69.546666z m-316.017778-467.768889c-17.464889 0-31.630222 14.165333-31.630222 31.630223v366.592c0 17.464889 14.165333 31.601778 31.601778 31.601777h316.046222c17.464889 0 31.630222-14.136889 31.630222-31.573333V383.914667l-88.519111-88.490667a6.314667 6.314667 0 0 0-4.152889-1.536h-255.004444z" fill="#FFFFFF" p-id="7480"></path><path d="M365.454222 512c0-32.768 19.911111-52.451556 45.511111-52.451556a38.684444 38.684444 0 0 1 28.558223 12.743112l-8.647112 10.126222a26.737778 26.737778 0 0 0-19.683555-8.988445c-17.294222 0-29.354667 14.449778-29.354667 38.115556 0 23.665778 11.377778 38.456889 28.899556 38.456889 8.817778 0.056889 17.180444-3.896889 22.755555-10.695111l8.419556 10.012444c-7.68 9.329778-19.2 14.648889-31.288889 14.449778-25.713778 0.341333-45.169778-18.545778-45.169778-51.768889z m93.752889-50.176h15.815111v40.96h42.666667v-40.96h15.815111v100.465778H517.688889v-45.511111h-42.666667v45.511111h-15.815111v-100.465778z m101.034667 0h18.204444L597.333333 512.568889c2.275556 6.712889 4.323556 13.539556 6.712889 20.366222h0.682667c2.275556-6.826667 4.209778-13.653333 6.599111-20.366222l18.204444-50.744889h18.318223v100.465778h-15.473778V512.568889c0-8.988444 1.251556-21.959111 2.048-31.061333l-8.078222 22.755555-17.635556 48.355556h-9.784889l-17.635555-47.900445-7.964445-22.755555c0.682667 9.102222 1.934222 22.072889 1.934222 31.061333v49.720889h-15.018666v-100.920889z" fill="#FFFFFF" p-id="7481"></path></svg>