<?xml version="1.0" encoding="UTF-8"?>
<svg width="23px" height="22px" viewBox="0 0 23 22" version="1.1" xmlns="http://www.w3.org/2000/svg" xmlns:xlink="http://www.w3.org/1999/xlink">
    <title>编组</title>
    <defs>
        <filter color-interpolation-filters="auto" id="filter-1">
            <feColorMatrix in="SourceGraphic" type="matrix" values="0 0 0 0 1.000000 0 0 0 0 1.000000 0 0 0 0 1.000000 0 0 0 1.000000 0"></feColorMatrix>
        </filter>
    </defs>
    <g id="客户备份" stroke="none" stroke-width="1" fill="none" fill-rule="evenodd">
        <g id="编组" transform="translate(-176.000000, -531.000000)" filter="url(#filter-1)">
            <g transform="translate(176.500000, 531.000000)" id="编组-4" fill="#000000" fill-rule="nonzero">
                <path d="M11.0330952,11.0567725 L11.0430952,11.0167725 L11.0330952,11.0567725 Z M22,11 C22,4.93386243 17.0634921,0 11,0 C4.93386243,0 0,4.93386243 0,11 C0,17.0661376 4.93386243,22 11.0026455,22 C17.0661376,22 22,17.0661376 22,11 M11,20.4232804 C5.8042328,20.4232804 1.57671958,16.1957672 1.57671958,11 C1.57671958,5.8042328 5.8042328,1.57671958 11,1.57671958 C16.1931217,1.57671958 20.4206362,5.8042328 20.4206362,11 C20.4232804,16.1931217 16.1957672,20.4232804 11,20.4232804" id="形状"></path>
                <path d="M15.5348815,14.4171452 L12.1087876,10.9766656 L15.5322174,7.58952671 C15.8439226,7.28281728 15.8439226,6.78141405 15.5375457,6.46937055 C15.2311687,6.15732705 14.7276448,6.15466001 14.4186036,6.46403647 L10.9925098,9.85384237 L7.61703467,6.46670351 C7.30799354,6.15732705 6.80713378,6.15466001 6.49809265,6.46403647 C6.18905153,6.77341294 6.18905153,7.27481617 6.49542851,7.58419263 L9.8655753,10.9686645 L6.46878703,14.3318 C6.15708175,14.6385094 6.15441761,15.1399126 6.46345873,15.4519561 C6.6179793,15.6093114 6.82045452,15.6866555 7.02559389,15.6866555 C7.22540497,15.6866555 7.42788019,15.6093114 7.58240075,15.4572902 L10.9845173,12.0888206 L14.4132753,15.5346343 C14.5677959,15.6893226 14.7702711,15.7666667 14.9754105,15.7666667 C15.1778857,15.7666667 15.3803609,15.6893226 15.5348815,15.5346343 C15.8412585,15.2279249 15.8439226,14.7265217 15.5348815,14.4171452" id="路径"></path>
            </g>
        </g>
    </g>
</svg>