<?xml version="1.0" standalone="no"?><!DOCTYPE svg PUBLIC "-//W3C//DTD SVG 1.1//EN" "http://www.w3.org/Graphics/SVG/1.1/DTD/svg11.dtd"><svg t="1606813272684" class="icon" viewBox="0 0 1024 1024" version="1.1" xmlns="http://www.w3.org/2000/svg" p-id="8218" xmlns:xlink="http://www.w3.org/1999/xlink" width="200" height="200"><defs><style type="text/css"></style></defs><path d="M66.0736 367.9744C66.0736 201.6 224.64 64 429.4144 64c165.1712 0 330.3168 137.6 330.3168 303.9744 0 166.4256-128.8192 304-330.3168 304-29.696 0-92.4928-3.1488-118.912-9.5744L198.2208 736v-115.2256c-79.3088-63.9744-132.1472-147.2-132.1472-252.8z m251.0336 358.4c26.4448 3.2 82.5856 9.6 112.3072 9.6 237.824 0 396.3904-169.5744 396.3904-371.1744C825.8048 163.2 627.6096 0 429.4144 0 191.5904 0 0 163.2256 0 364.8c0 115.2 46.2592 214.3744 132.1472 288v182.3744l184.96-108.7744z m571.4432-435.2c0 9.6256 3.328 19.2256 3.328 28.8256 0 19.2-3.328 41.6-6.6048 60.8 42.9056 51.2 72.6784 112 72.6784 179.2 0 105.5744-66.0736 201.6256-165.1712 256v111.9744l-112.3328-73.5744c-26.3936 6.4-56.1408 9.6-85.8624 9.6-85.8624 0-132.1216-25.6-191.5904-67.2-16.5376 0-36.3264 3.1744-56.1664 3.1744-13.184 0-26.4192 0-39.6032-3.1744 79.2576 73.5744 158.5408 121.6 287.36 121.6 26.4192 0 52.864-3.2 79.2832-6.4256L858.8288 1024v-182.4256C957.952 774.4 1024 672 1024 553.5744c0-102.4-52.8384-195.1744-135.4496-262.3744zM611.072 416c26.4192 0 49.5616-22.4256 49.5616-48.0256 0-25.6-23.1424-47.9744-49.5616-47.9744s-49.536 22.4-49.536 47.9744c0 25.6256 23.0912 48 49.536 48v0.0256z m-198.1952 0c26.4192 0 49.5616-22.4256 49.5616-48.0256 0-25.6-23.1168-47.9744-49.5616-47.9744-26.4192 0-49.536 22.4-49.536 47.9744 0 25.6256 23.1168 48 49.536 48v0.0256z m-198.1952 0c26.4448 0 49.5616-22.4256 49.5616-48.0256 0-25.6-23.1168-47.9744-49.5616-47.9744-26.4192 0-49.536 22.4-49.536 47.9744 0 25.6256 23.1168 48 49.536 48v0.0256z" p-id="8219"></path></svg>