<?xml version="1.0" encoding="UTF-8"?>
<svg width="17px" height="16px" viewBox="0 0 17 16" version="1.1" xmlns="http://www.w3.org/2000/svg" xmlns:xlink="http://www.w3.org/1999/xlink">
    <title>想看</title>
    <defs>
        <filter color-interpolation-filters="auto" id="filter-1">
            <feColorMatrix in="SourceGraphic" type="matrix" values="0 0 0 0 0.772549 0 0 0 0 0.792157 0 0 0 0 0.835294 0 0 0 1.000000 0"></feColorMatrix>
        </filter>
    </defs>
    <g id="客户备份" stroke="none" stroke-width="1" fill="none" fill-rule="evenodd">
        <g id="客户" transform="translate(-335.000000, -226.000000)">
            <rect id="bg" fill="#FFFFFF" x="0" y="55" width="375" height="812"></rect>
            <rect id="矩形" fill="#FFFFFF" x="0" y="206" width="375" height="116"></rect>
            <g filter="url(#filter-1)" id="想看">
                <g transform="translate(335.000000, 226.000000)">
                    <rect id="矩形" fill="#000000" fill-rule="nonzero" opacity="0" x="1" y="0" width="16" height="16"></rect>
                    <path d="M6.66666667,3.065 C7.53833334,2.32566667 8.17,2 9.10083334,2 C11.0731667,2 12.4245,3.199 12.9811667,5.1695 C13.0528363,5.43404371 12.8981759,5.70697672 12.6344047,5.78143931 C12.3706335,5.85590191 12.0960806,5.70413582 12.0188333,5.44116667 C11.5761667,3.87466667 10.5905,3 9.10083334,3 C8.45216667,3 8.00150002,3.23833333 7.2715,3.86333334 C7.23766667,3.89233334 7.0465,4.05733334 6.991,4.1045 C6.80411297,4.2637849 6.52922037,4.2637849 6.34233334,4.1045 C6.28683334,4.05733333 6.09566667,3.89233333 6.06183334,3.86333334 C5.33183334,3.23833334 4.88116667,3 4.2325,3 C2.26216667,3 1,4.57866667 1,6.85566667 C1,8.5895 2.76983333,10.7445 6.36833334,13.2431667 C6.54350001,13.3642008 6.77554747,13.3632029 6.94966667,13.2406667 C7.691,12.7166667 8.184,12.359 8.42283334,12.1723333 C8.56359599,12.0623253 8.75235462,12.0357697 8.91800568,12.1026697 C9.08365675,12.1695697 9.20103392,12.3197617 9.22592235,12.4966697 C9.25081078,12.6735777 9.17942931,12.8503253 9.03866667,12.9603333 C8.783,13.16 8.28116667,13.5241667 7.527,14.0573333 C7.00934325,14.4227195 6.318501,14.4255828 5.79783334,14.0645 C1.95216667,11.3941667 0,9.01716667 0,6.85566667 C0,4.06933334 1.6545,2 4.2325,2 C5.16333334,2 5.795,2.32566667 6.66666667,3.065 Z M11.5,8.83333334 L12.8333333,8.83333334 C13.1094757,8.83333334 13.3333333,9.05719097 13.3333333,9.33333334 C13.3333333,9.60947572 13.1094757,9.83333334 12.8333333,9.83333334 L11.5,9.83333334 L11.5,11.1666667 C11.5,11.442809 11.2761424,11.6666667 11,11.6666667 C10.7238576,11.6666667 10.5,11.442809 10.5,11.1666667 L10.5,9.83333334 L9.16666667,9.83333334 C8.8905243,9.83333334 8.66666667,9.60947572 8.66666667,9.33333334 C8.66666667,9.05719097 8.8905243,8.83333334 9.16666667,8.83333334 L10.5,8.83333334 L10.5,7.5 C10.5,7.22385763 10.7238576,7 11,7 C11.2761424,7 11.5,7.22385763 11.5,7.5 L11.5,8.83333334 Z" id="形状" fill="#000000" fill-rule="nonzero"></path>
                </g>
            </g>
        </g>
    </g>
</svg>