<?xml version="1.0" encoding="UTF-8"?>
<svg width="16px" height="16px" viewBox="0 0 16 16" version="1.1" xmlns="http://www.w3.org/2000/svg" xmlns:xlink="http://www.w3.org/1999/xlink">
    <title>叹号</title>
    <defs>
        <filter color-interpolation-filters="auto" id="filter-1">
            <feColorMatrix in="SourceGraphic" type="matrix" values="0 0 0 0 0.400000 0 0 0 0 0.435294 0 0 0 0 0.513725 0 0 0 1.000000 0"></feColorMatrix>
        </filter>
    </defs>
    <g id="客户备份" stroke="none" stroke-width="1" fill="none" fill-rule="evenodd">
        <g id="客户" transform="translate(-339.000000, -182.000000)">
            <rect id="bg" fill="#FFFFFF" x="0" y="55" width="375" height="812"></rect>
            <rect id="bg" fill="#F9FAFB" x="0" y="174" width="375" height="32"></rect>
            <g filter="url(#filter-1)" id="叹号">
                <g transform="translate(339.000000, 182.000000)">
                    <rect id="矩形" fill="#666F83" fill-rule="nonzero" opacity="0" x="0" y="0" width="16" height="16"></rect>
                    <path d="M8,1.33333333 C11.6818333,1.33333333 14.6666667,4.31816666 14.6666667,8 C14.6666667,9.22333333 14.3361667,10.3995 13.72,11.4261667 C13.5778787,11.6629587 13.2707088,11.7397046 13.0339167,11.5975833 C12.7971246,11.455462 12.7203787,11.1482921 12.8625,10.9115 C13.3904053,10.0322179 13.6684418,9.02558172 13.6666667,8 C13.6666667,4.87033333 11.1296667,2.33333333 8,2.33333333 C4.87033333,2.33333333 2.33333333,4.87033333 2.33333333,8 C2.33333333,11.1296667 4.87033333,13.6666667 8,13.6666667 C9.02543715,13.6684819 10.0319479,13.3905634 10.9111667,12.8628333 C11.0643443,12.7709268 11.2549178,12.7677209 11.4111001,12.8544233 C11.5672823,12.9411257 11.6653454,13.1045643 11.6683501,13.2831733 C11.6713547,13.4617823 11.5788443,13.6284268 11.4256667,13.7203333 C10.3910338,14.3413182 9.20668308,14.6684926 8,14.6666743 C4.31816667,14.6666743 1.33333333,11.6818333 1.33333333,8 C1.33333333,4.31816667 4.31816667,1.33333333 8,1.33333333 Z M8,10.1666667 C8.23820137,10.1666302 8.45832411,10.2936882 8.57743532,10.4999705 C8.69654654,10.7062529 8.69654654,10.9604138 8.57743532,11.1666961 C8.45832411,11.3729785 8.23820137,11.5000365 8,11.5 C7.63185003,11.4999436 7.33343539,11.2014833 7.33343539,10.8333333 C7.33343539,10.4651834 7.63185003,10.166723 8,10.1666667 Z M8,4.5 C8.36818984,4.5 8.66666667,4.79847684 8.66666667,5.16666667 L8.66666667,8.83333333 C8.66666667,9.20152316 8.36818984,9.5 8,9.5 C7.63181016,9.5 7.33333333,9.20152316 7.33333333,8.83333333 L7.33333333,5.16666667 C7.33333333,4.79847684 7.63181016,4.5 8,4.5 Z" id="形状" fill="#666F83" fill-rule="nonzero"></path>
                </g>
            </g>
        </g>
    </g>
</svg>