<?xml version="1.0" standalone="no"?><!DOCTYPE svg PUBLIC "-//W3C//DTD SVG 1.1//EN" "http://www.w3.org/Graphics/SVG/1.1/DTD/svg11.dtd"><svg t="1611885749493" class="icon" viewBox="0 0 1024 1024" version="1.1" xmlns="http://www.w3.org/2000/svg" p-id="7578" xmlns:xlink="http://www.w3.org/1999/xlink" width="200" height="200"><defs><style type="text/css"></style></defs><path d="M0 0m56.888889 0l910.222222 0q56.888889 0 56.888889 56.888889l0 910.222222q0 56.888889-56.888889 56.888889l-910.222222 0q-56.888889 0-56.888889-56.888889l0-910.222222q0-56.888889 56.888889-56.888889Z" fill="#2E5EA6" p-id="7579"></path><path d="M705.109333 464.896H370.488889a20.366222 20.366222 0 1 0 0 40.704h326.257778v151.523556H325.319111V353.649778h142.677333l26.168889 40.419555a20.337778 20.337778 0 0 0 17.92 10.695111h144.952889v31.488a20.366222 20.366222 0 1 0 40.704 0v-41.329777a33.792 33.792 0 0 0-33.649778-30.691556h-27.079111v-0.085333h-113.777777l-26.737778-41.386667-0.284445-0.426667a20.394667 20.394667 0 0 0-17.152-9.386666h-133.404444v0.028444h-27.022222a33.848889 33.848889 0 0 0-33.848889 33.848889v0.227556h-0.056889v319.601777a33.763556 33.763556 0 0 0 30.065778 31.089778h390.826666a33.763556 33.763556 0 0 0 31.914667-29.240889v-173.027555a33.962667 33.962667 0 0 0-32.426667-30.577778z" fill="#FFFFFF" p-id="7580"></path></svg>