<?xml version="1.0" standalone="no"?><!DOCTYPE svg PUBLIC "-//W3C//DTD SVG 1.1//EN" "http://www.w3.org/Graphics/SVG/1.1/DTD/svg11.dtd"><svg t="1637287793703" class="icon" viewBox="0 0 1024 1024" version="1.1" xmlns="http://www.w3.org/2000/svg" p-id="11658" xmlns:xlink="http://www.w3.org/1999/xlink" width="200" height="200"><defs><style type="text/css"></style></defs><path d="M967.111111 0a56.888889 56.888889 0 0 1 56.888889 56.888889v910.222222a56.888889 56.888889 0 0 1-56.888889 56.888889H56.888889a56.888889 56.888889 0 0 1-56.888889-56.888889V56.888889a56.888889 56.888889 0 0 1 56.888889-56.888889h910.222222z m-241.664 256H304.583111l-2.730667 0.170667A19.996444 19.996444 0 0 0 284.444444 275.911111V776.533333l0.170667 2.702223a19.797333 19.797333 0 0 0 19.968 17.180444h414.833778l2.730667-0.170667A19.996444 19.996444 0 0 0 739.555556 776.533333V270.449778l-0.227556-2.588445A14.307556 14.307556 0 0 0 725.447111 256zM580.266667 584.96v23.495111h-204.8v-23.495111h204.8z m68.266666-70.485333v23.495111h-273.066666v-23.495111h273.066666z m0-70.485334v23.495111h-273.066666v-23.495111h273.066666z m0-94.008889v23.495112h-273.066666v-23.495112h273.066666z" fill="#2E5EA6" p-id="11659"></path></svg>