<svg class="icon" width="200" height="200" viewBox="0 0 1024 1024" xmlns="http://www.w3.org/2000/svg"><path d="M512 986.086c-261.811 0-474.086-212.224-474.086-474.035 0-261.862 212.275-474.112 474.112-474.112 261.785 0 474.035 212.25 474.035 474.112 0 261.786-212.25 474.035-474.061 474.035M512 0C229.197 0 0 229.248 0 512c0 282.803 229.197 512 511.974 512 282.804 0 512-229.171 512-511.974 0-282.752-229.248-512-512-512M225.715 566.63c0 126.976 131.123 229.99 292.864 229.99S811.52 693.633 811.52 566.63c-3.38 2.048-572.518-4.608-585.78 0m458.37-110.873c31.949 0 57.907-33.383 57.907-74.496s-25.958-74.445-57.907-74.445c-32.026 0-57.959 33.331-57.959 74.445 0 41.113 25.959 74.496 57.959 74.496m-347.495 0c32 0 57.933-33.383 57.933-74.496s-25.958-74.445-57.933-74.445c-32 0-57.881 33.331-57.881 74.445 0 41.113 25.907 74.496 57.881 74.496"/></svg>