<?xml version="1.0" standalone="no"?><!DOCTYPE svg PUBLIC "-//W3C//DTD SVG 1.1//EN" "http://www.w3.org/Graphics/SVG/1.1/DTD/svg11.dtd"><svg t="1610003746447" class="icon" viewBox="0 0 1024 1024" version="1.1" xmlns="http://www.w3.org/2000/svg" p-id="6781" xmlns:xlink="http://www.w3.org/1999/xlink" width="200" height="200"><defs><style type="text/css"></style></defs><path d="M973.682759 176.551724c28.248276 0 51.2 22.951724 51.2 51.2v568.496552c0 28.248276-22.951724 51.2-51.2 51.2H338.096552h-3.531035c-15.889655-5.296552-60.027586-42.372414-326.620689-312.496552-10.593103-10.593103-10.593103-24.717241 0-35.310345 95.337931-98.868966 162.427586-167.724138 210.096551-215.393103l8.827587-8.827586c84.744828-84.744828 102.4-95.337931 111.227586-97.103449l635.586207-1.765517z m0 51.2H348.689655c-21.186207 17.655172-109.462069 105.931034-204.8 203.034483l-10.593103 12.358621c-22.951724 22.951724-45.903448 47.668966-67.089655 70.620689 3.531034 3.531034 7.062069 7.062069 10.593103 12.358621l17.655172 17.655172c3.531034 3.531034 7.062069 7.062069 10.593104 12.358621l10.593103 12.358621c3.531034 3.531034 7.062069 7.062069 10.593104 12.35862l10.593103 12.358621c33.544828 35.310345 67.089655 67.089655 95.337931 97.103448l14.124138 14.124138c47.668966 47.668966 86.510345 84.744828 100.634483 95.337931H973.682759V227.751724zM726.510345 370.758621c10.593103-10.593103 24.717241-10.593103 35.310345 0 10.593103 10.593103 10.593103 24.717241 0 35.310345l-105.931035 107.696551 105.931035 107.696552c10.593103 10.593103 10.593103 24.717241 0 35.310345-5.296552 5.296552-12.358621 7.062069-17.655173 7.062069-5.296552 0-12.358621-1.765517-17.655172-7.062069l-105.931035-107.696552-105.931034 107.696552c-5.296552 5.296552-12.358621 7.062069-17.655173 7.062069s-12.358621-1.765517-17.655172-7.062069c-7.062069-10.593103-7.062069-24.717241 0-35.310345l105.931035-107.696552-105.931035-107.696551c-10.593103-10.593103-10.593103-24.717241 0-35.310345 10.593103-10.593103 24.717241-10.593103 35.310345 0l105.931034 107.696551 105.931035-107.696551z" p-id="6782"></path></svg>