<?xml version="1.0" standalone="no"?><!DOCTYPE svg PUBLIC "-//W3C//DTD SVG 1.1//EN" "http://www.w3.org/Graphics/SVG/1.1/DTD/svg11.dtd"><svg t="1611885743556" class="icon" viewBox="0 0 1024 1024" version="1.1" xmlns="http://www.w3.org/2000/svg" p-id="7449" xmlns:xlink="http://www.w3.org/1999/xlink" width="200" height="200"><defs><style type="text/css"></style></defs><path d="M0 0m56.888889 0l910.222222 0q56.888889 0 56.888889 56.888889l0 910.222222q0 56.888889-56.888889 56.888889l-910.222222 0q-56.888889 0-56.888889-56.888889l0-910.222222q0-56.888889 56.888889-56.888889Z" fill="#0CC69C" p-id="7450"></path><path d="M708.266667 791.893333H327.452444c-16.440889 0-29.809778-13.368889-29.809777-29.781333V258.673778c0-16.412444 13.368889-29.781333 29.809777-29.781334H560.355556V272.213333h-219.335112v476.359111h353.678223V395.434667h43.320889v366.648889c0 16.440889-13.368889 29.809778-29.781334 29.809777z" fill="#FFFFFF" p-id="7451"></path><path d="M589.368889 366.193778h148.935111v43.320889h-148.906667z" fill="#FFFFFF" p-id="7452"></path><path d="M588.714667 228.380444h43.320889v180.110223h-43.320889z" fill="#FFFFFF" p-id="7453"></path><path d="M598.385778 254.350222l34.503111-26.168889 105.045333 138.609778-34.531555 26.168889zM364.942222 507.818667h61.44v16.64h-41.415111v23.153777h35.185778v16.782223h-35.185778v26.823111h42.894222v16.782222H364.942222v-100.181333z m128.056889 48.469333l-26.396444-48.469333h22.186666l10.040889 20.565333c2.275556 4.750222 4.465778 9.614222 7.424 15.843556h0.682667c2.446222-6.229333 4.465778-11.093333 6.627555-15.843556l9.500445-20.565333h21.105778l-26.396445 49.408 28.16 50.773333h-22.186666l-11.264-22.186667c-2.56-5.176889-4.864-10.439111-7.850667-16.526222h-0.540445c-2.56 6.087111-4.864 11.377778-7.310222 16.497778l-10.695111 22.186667h-21.248l28.16-51.683556z m94.236445-48.469333h61.44v16.64H607.288889v23.153777h35.214222v16.782223h-35.214222v26.823111h42.951111v16.782222h-62.976v-100.181333z" fill="#FFFFFF" p-id="7454"></path></svg>