<?xml version="1.0" standalone="no"?><!DOCTYPE svg PUBLIC "-//W3C//DTD SVG 1.1//EN" "http://www.w3.org/Graphics/SVG/1.1/DTD/svg11.dtd"><svg t="1611830330206" class="icon" viewBox="0 0 1024 1024" version="1.1" xmlns="http://www.w3.org/2000/svg" p-id="2293" xmlns:xlink="http://www.w3.org/1999/xlink" width="200" height="200"><defs><style type="text/css"></style></defs><path d="M967.111111 0a56.888889 56.888889 0 0 1 56.888889 56.888889v910.222222a56.888889 56.888889 0 0 1-56.888889 56.888889H56.888889a56.888889 56.888889 0 0 1-56.888889-56.888889V56.888889a56.888889 56.888889 0 0 1 56.888889-56.888889h910.222222z m-173.511111 256H230.4c-14.136889 0-25.6 11.377778-25.6 25.400889v461.198222c0 13.738667 11.463111 25.400889 25.6 25.400889h563.2l2.958222-0.170667a25.457778 25.457778 0 0 0 22.641778-25.230222V281.400889A25.685333 25.685333 0 0 0 793.6 256z m0 25.6v404.622222l-123.107556-139.008-1.905777-1.877333a15.416889 15.416889 0 0 0-21.845334 1.592889l-43.605333 49.180444 42.951111 89.486222-61.781333-68.266666-12.316445 13.937778-145.436444-160.910223-1.905778-1.848889a15.758222 15.758222 0 0 0-22.243555 1.934223L230.4 662.016V281.6h563.2z" fill="#48BACB" p-id="2294"></path></svg>