<?xml version="1.0" standalone="no"?><!DOCTYPE svg PUBLIC "-//W3C//DTD SVG 1.1//EN" "http://www.w3.org/Graphics/SVG/1.1/DTD/svg11.dtd"><svg t="1606813263825" class="icon" viewBox="0 0 1024 1024" version="1.1" xmlns="http://www.w3.org/2000/svg" p-id="7843" xmlns:xlink="http://www.w3.org/1999/xlink" width="200" height="200"><defs><style type="text/css"></style></defs><path d="M1023.98848 510.458257a508.256682 508.256682 0 0 1-159.486206 370.223035l1.612782 1.433584c10.495882 9.036698 29.490868 19.199784 59.084136 32.204438 7.628714 3.353562 34.303614 14.745434 39.218758 16.89581 15.07823 6.604726 25.215716 11.494271 33.202827 16.307016 17.407804 10.470282 27.084495 20.377371 24.780521 39.525956-2.483172 20.889365-16.537414 28.44128-39.167559 33.228426-17.587002 3.737558-97.7909 4.351951-238.947712 3.199964-32.332436-0.255997-66.456852-0.614393-103.832432-1.023989-12.390261-0.153598-121.291435-1.535983-128.459355-1.535982-282.774419 0-511.99424-228.554229-511.99424-510.458258C0 228.528629 229.219821 0 511.99424 0s511.99424 228.528629 511.99424 510.458257z m-404.833845 162.634971c-90.085387 77.823124-62.796094-58.70014-58.67454-77.823125 4.070354-19.097385 62.796094-136.523264 19.788577-156.311841-43.007516-19.814177-175.460426 77.823124-175.460426 77.823124s-21.836554 15.692623-19.762978 19.788578c14.310239 25.266916 77.797525-19.788577 77.797525-19.788578s21.836554-17.7662 19.788577 0a1499.195934 1499.195934 0 0 0-38.885962 234.134966c9.523093 51.890616 91.442171 30.054062 155.646249-38.911562 64.178478-68.940024 19.762978-38.911562 19.762978-38.911562z m-52.274612-293.628697a68.248832 68.248832 0 1 0 7.423916-136.292867 68.248832 68.248832 0 0 0-7.423916 136.292867z" p-id="7844"></path></svg>