<?xml version="1.0" standalone="no"?><!DOCTYPE svg PUBLIC "-//W3C//DTD SVG 1.1//EN" "http://www.w3.org/Graphics/SVG/1.1/DTD/svg11.dtd"><svg t="1611884479074" class="icon" viewBox="0 0 1024 1024" version="1.1" xmlns="http://www.w3.org/2000/svg" p-id="7605" xmlns:xlink="http://www.w3.org/1999/xlink" width="200" height="200"><defs><style type="text/css"></style></defs><path d="M0 0m56.888889 0l910.222222 0q56.888889 0 56.888889 56.888889l0 910.222222q0 56.888889-56.888889 56.888889l-910.222222 0q-56.888889 0-56.888889-56.888889l0-910.222222q0-56.888889 56.888889-56.888889Z" fill="#2E5EA6" p-id="7606"></path><path d="M388.551111 199.111111a94.577778 94.577778 0 0 0-94.577778 94.663111v165.546667H223.004444a23.694222 23.694222 0 0 0-23.637333 23.665778v141.937777c0 12.999111 10.609778 23.608889 23.608889 23.608889h71.025778v70.940445a94.577778 94.577778 0 0 0 94.577778 94.663111h283.875555a94.663111 94.663111 0 0 0 94.634667-94.663111V388.323556c0-25.088-23.409778-49.208889-64.568889-89.656889l-17.493333-17.493334-17.493334-17.493333C627.057778 222.520889 602.936889 199.111111 577.848889 199.111111H388.551111z m0 47.274667h172.487111c17.038222 4.266667 16.810667 25.315556 16.810667 46.136889v72.163555c0 12.999111 10.638222 23.637333 23.637333 23.637334h70.912c23.665778 0 47.388444 0 47.388445 23.637333v307.484444c0 26.055111-21.333333 47.388444-47.388445 47.388445h-283.875555a47.502222 47.502222 0 0 1-47.274667-47.36V648.533333h236.600889a23.694222 23.694222 0 0 0 23.637333-23.637333v-141.937778a23.694222 23.694222 0 0 0-23.608889-23.637333h-236.629333v-165.575111a47.502222 47.502222 0 0 1 47.303111-47.388445z m-91.505778 257.422222h38.627556v7.509333l-12.686222 2.901334v84.764444l12.686222 2.844445v7.509333h-38.599111v-7.480889l12.657778-2.901333v-84.764445l-12.657778-2.844444v-7.509334z m58.823111 0h15.559112l51.313777 87.096889h0.568889a520.817778 520.817778 0 0 1-1.137778-29.411556v-57.656889h12.686223v105.528889h-15.559111l-51.882667-87.068444h-0.568889c0.739556 13.824 1.137778 23.808 1.137778 29.980444v57.059556h-12.117334v-105.528889z m99.157334 0h38.656v7.509333l-12.686222 2.901334v84.764444l12.686222 2.844445v7.509333h-38.656v-7.480889l12.686222-2.901333v-84.764445l-12.686222-2.844444v-7.509334z" fill="#FFFFFF" p-id="7607"></path></svg>