<?xml version="1.0" standalone="no"?><!DOCTYPE svg PUBLIC "-//W3C//DTD SVG 1.1//EN" "http://www.w3.org/Graphics/SVG/1.1/DTD/svg11.dtd"><svg t="1611885754191" class="icon" viewBox="0 0 1024 1024" version="1.1" xmlns="http://www.w3.org/2000/svg" p-id="7704" xmlns:xlink="http://www.w3.org/1999/xlink" width="200" height="200"><defs><style type="text/css"></style></defs><path d="M184.888889 0h448.142222L952.888889 320V896A128 128 0 0 1 824.888889 1024H184.888889A128 128 0 0 1 56.888889 896v-768A128 128 0 0 1 184.888889 0z" fill="#9342D5" p-id="7705"></path><path d="M276.366222 204.174222c7.054222 0 10.666667 3.640889 10.666667 10.752 0 6.030222-2.588444 9.557333-7.708445 10.382222l-1.479111 0.142223-1.479111 0.028444h-13.596444c-6.855111 0-10.638222 3.242667-11.576889 10.040889l-0.170667 1.763556-0.056889 1.848888v44.231112c0 14.791111-6.826667 24.718222-20.423111 28.444444 11.889778 4.920889 18.602667 13.112889 20.110222 24.547556l0.227556 2.503111 0.085333 2.56v44.487111c0 7.68 2.929778 12.060444 8.704 13.141333l1.507556 0.199111 1.592889 0.056889h13.596444c7.054222 0 10.666667 3.584 10.666667 10.552889 0 5.831111-2.56 9.386667-7.594667 10.439111l-1.422222 0.227556-1.649778 0.113777h-18.204444c-10.695111 0-19.000889-3.498667-24.689778-10.382222a35.783111 35.783111 0 0 1-7.424-19.228444l-0.227556-2.986667-0.085333-3.072v-42.154667c0-6.542222-1.365333-11.235556-3.982222-13.852444-3.072-3.527111-8.675556-5.575111-16.668445-6.030222-5.347556-0.853333-8.021333-4.437333-8.021333-10.524445s2.673778-9.671111 8.049778-10.552889c7.850667-0.682667 13.539556-2.673778 16.64-5.774222a17.891556 17.891556 0 0 0 3.697778-9.642666l0.227555-2.133334 0.056889-2.304V240.042667c0-10.695111 2.56-19.143111 7.736889-25.514667 4.664889-5.831111 11.150222-9.159111 19.512889-10.097778l2.56-0.199111 2.616889-0.056889h18.204444z m179.968 0c10.695111 0 19.000889 3.470222 24.689778 10.353778 4.124444 5.091556 6.599111 11.491556 7.424 19.256889l0.227556 2.986667 0.085333 3.043555v42.183111c0 6.542222 1.365333 11.207111 3.982222 13.852445 3.072 3.527111 8.675556 5.546667 16.668445 6.001777 5.319111 0.853333 8.021333 4.437333 8.021333 10.524445s-2.702222 9.671111-8.049778 10.581333c-7.850667 0.654222-13.539556 2.673778-16.64 5.745778a17.891556 17.891556 0 0 0-3.726222 9.671111l-0.199111 2.104889-0.056889 2.332444v41.927112c0 10.723556-2.56 19.171556-7.736889 25.514666-4.664889 5.831111-11.150222 9.159111-19.512889 10.097778l-2.56 0.227556-2.616889 0.056888h-18.204444c-7.054222 0-10.695111-3.669333-10.695111-10.780444 0-6.030222 2.616889-9.528889 7.736889-10.382222l1.450666-0.142222h15.104c6.855111 0 10.638222-3.271111 11.548445-10.040889l0.199111-1.792 0.056889-1.820445v-44.259555c0-14.791111 6.826667-24.689778 20.423111-28.444445-11.889778-4.892444-18.602667-13.084444-20.110222-24.547555l-0.256-2.503111-0.056889-2.56V238.933333c0-7.68-2.929778-12.088889-8.704-13.141333l-1.536-0.227556-1.564445-0.056888h-13.596444c-7.054222 0-10.695111-3.584-10.695111-10.524445 0-5.859556 2.56-9.386667 7.623111-10.467555l1.422222-0.227556 1.649778-0.085333h18.204444z m-72.903111 140.8c6.456889 0 11.918222 2.645333 16.213333 7.822222 4.010667 5.233778 6.087111 12.088889 6.087112 20.195556 0 12.174222-3.612444 22.926222-10.695112 32.426667-5.632 7.850667-11.093333 10.837333-16.213333 8.96-4.636444-1.649778-5.12-8.362667-2.133333-11.463111l1.365333-1.422223 0.995556-1.28c0.284444-0.369778 0.824889-1.194667 2.275555-3.384889 3.896889-5.205333 5.632-10.154667 6.456889-15.132444a17.92 17.92 0 0 1-5.973333 0.938667 17.834667 17.834667 0 0 1-13.084445-5.489778 18.119111 18.119111 0 0 1-5.262222-13.368889c0-5.688889 1.905778-10.24 5.688889-13.568 3.555556-3.527111 8.277333-5.233778 14.279111-5.233778z m-65.365333 1.251556a15.758222 15.758222 0 0 0-11.064889 3.925333l-1.166222 1.194667a16.241778 16.241778 0 0 0-5.12 12.458666c0 4.977778 1.621333 8.931556 5.12 12.458667 3.157333 3.128889 7.395556 4.864 12.231111 4.864a18.289778 18.289778 0 0 0 12.430222-4.835555c3.441778-3.697778 5.12-7.708444 5.12-12.515556a17.066667 17.066667 0 0 0-5.12-12.430222 16.583111 16.583111 0 0 0-12.430222-5.12z m0-78.08c5.319111 0 9.585778 1.763556 13.368889 5.518222a18.346667 18.346667 0 0 1 5.461333 13.340444c0 5.12-1.820444 9.443556-5.518222 13.368889a19.541333 19.541333 0 0 1-13.312 5.233778 18.204444 18.204444 0 0 1-13.112889-5.233778 17.863111 17.863111 0 0 1-5.518222-13.368889c0-4.750222 1.393778-8.760889 4.181333-12.003555l1.28-1.336889a16.668444 16.668444 0 0 1 13.169778-5.518222z" fill="#C88CFF" fill-opacity=".9" p-id="7706"></path><path d="M632.888889 0L952.888889 320h-192a128 128 0 0 1-128-128V0z" fill="#C88CFF" p-id="7707"></path><path d="M239.843556 732.216889c17.834667 0 32.455111-5.518222 43.861333-16.554667 11.434667-11.036444 17.152-25.884444 17.152-44.430222V547.555556H258.56v123.648c0 8.903111-1.763556 15.872-5.233778 20.935111-3.527111 5.034667-8.021333 7.566222-13.511111 7.566222-7.253333 0-13.112889-2.104889-17.635555-6.257778-4.494222-4.181333-6.741333-10.723556-6.741334-19.626667h-41.244444l-0.398222 0.739556c-0.398222 18.773333 5.376 33.052444 17.322666 42.894222 11.946667 9.813333 28.188444 14.734222 48.696889 14.734222z m157.383111 0c20.650667 0 37.262222-4.522667 49.749333-13.568 12.487111-9.016889 18.744889-21.560889 18.744889-37.546667 0-15.644444-5.404444-28.017778-16.270222-36.977778-10.808889-9.016889-26.766222-16.668444-47.872-22.897777-12.401778-4.835556-20.878222-8.874667-25.429334-12.060445a14.961778 14.961778 0 0 1-6.826666-12.8c0-5.518222 2.218667-10.126222 6.656-13.880889 4.408889-3.754667 10.439111-5.632 18.119111-5.632 9.386667 0 16.469333 1.934222 21.105778 5.802667 4.693333 3.868444 6.997333 10.097778 6.997333 18.688h41.016889l0.256-0.768c0.398222-17.635556-5.688889-31.345778-18.375111-41.045333-12.686222-9.699556-29.383111-14.563556-50.147556-14.563556-19.626667 0-35.84 4.721778-48.64 14.136889-12.714667 9.386667-19.086222 21.76-19.086222 36.977778 0 15.616 5.461333 27.534222 16.412444 35.84 10.979556 8.277333 27.761778 16.099556 50.346667 23.438222 11.150222 3.896889 18.858667 7.594667 23.096889 11.036444 4.266667 3.470222 6.4 8.448 6.4 14.933334 0 5.688889-2.190222 10.24-6.513778 13.767111-4.352 3.498667-10.922667 5.262222-19.740444 5.262222-10.752 0-18.744889-2.247111-23.950223-6.712889-5.205333-4.437333-7.793778-11.946667-7.793777-22.556444H324.352l-0.284444 0.768c-0.398222 20.821333 6.542222 36.096 20.821333 45.795555 14.307556 9.728 31.744 14.563556 52.337778 14.563556z m165.745777 0c22.926222 0 41.472-7.253333 55.694223-21.816889 14.222222-14.506667 21.304889-32.995556 21.304889-55.438222v-32.739556c0-22.328889-7.168-40.817778-21.504-55.381333-14.336-14.592-32.938667-21.902222-55.751112-21.902222-23.011556 0-41.642667 7.310222-55.921777 21.902222-14.307556 14.563556-21.447111 33.024-21.447111 55.381333v32.739556c0 22.414222 7.168 40.903111 21.504 55.438222 14.336 14.535111 32.995556 21.816889 56.120888 21.816889z m0-32.483556c-11.434667 0-20.195556-4.181333-26.339555-12.515555-6.115556-8.305778-9.159111-19.057778-9.159111-32.256v-32.995556c0-13.084444 3.015111-23.751111 9.045333-32.056889 6.058667-8.277333 14.791111-12.430222 26.197333-12.430222 11.150222 0 19.797333 4.152889 25.941334 12.515556 6.115556 8.305778 9.187556 18.972444 9.187555 31.971555v32.995556c0 13.198222-3.043556 23.921778-9.102222 32.256-6.115556 8.334222-14.705778 12.515556-25.770667 12.515555z m144.981334 29.866667v-114.261333l0.739555-0.256 66.645334 114.517333h42.097777v-182.016h-42.097777v114.147556l-0.739556 0.256-66.645333-114.403556h-42.24v182.016h42.24z" fill="#FFFFFF" fill-opacity=".9" p-id="7708"></path></svg>