<svg class="icon" width="200" height="200" viewBox="0 0 1024 1024" xmlns="http://www.w3.org/2000/svg"><path d="M512 0c282.752 0 512 229.248 512 512 0 282.829-229.222 512-512 512S0 794.829 0 512C0 229.274 229.222 0 512 0zm0 37.965c-261.786 0-474.086 212.224-474.086 474.086 0 261.811 212.3 474.061 474.112 474.061s474.06-212.25 474.06-474.06c0-261.838-212.25-474.113-474.06-474.113zm145.075 625.74a25.6 25.6 0 0125.6 25.6v62.593a25.6 25.6 0 01-25.6 25.6H366.95a25.6 25.6 0 01-25.6-25.6v-62.592a25.6 25.6 0 0125.6-25.6h290.125zM315.75 474.113a25.6 25.6 0 0125.6 25.6v62.566a25.6 25.6 0 01-25.6 25.6h-62.592a25.6 25.6 0 01-25.6-25.6v-62.566a25.6 25.6 0 0125.6-25.6h62.592zm151.706 0a25.6 25.6 0 0125.6 25.6v62.566a25.6 25.6 0 01-25.6 25.6h-62.592a25.6 25.6 0 01-25.6-25.6v-62.566a25.6 25.6 0 0125.6-25.6h62.592zm151.706 0a25.6 25.6 0 0125.6 25.6v62.566a25.6 25.6 0 01-25.6 25.6h-62.618a25.6 25.6 0 01-25.6-25.6v-62.566a25.6 25.6 0 0125.6-25.6h62.592zm151.705 0a25.6 25.6 0 0125.6 25.6v62.566a25.6 25.6 0 01-25.6 25.6h-62.592a25.6 25.6 0 01-25.6-25.6v-62.566a25.6 25.6 0 0125.6-25.6h62.592zM315.75 322.406a25.6 25.6 0 0125.6 25.6v62.567a25.6 25.6 0 01-25.6 25.6h-62.592a25.6 25.6 0 01-25.6-25.6v-62.567a25.6 25.6 0 0125.6-25.6h62.592zm151.706 0a25.6 25.6 0 0125.6 25.6v62.567a25.6 25.6 0 01-25.6 25.6h-62.592a25.6 25.6 0 01-25.6-25.6v-62.567a25.6 25.6 0 0125.6-25.6h62.592zm151.706 0a25.6 25.6 0 0125.6 25.6v62.567a25.6 25.6 0 01-25.6 25.6h-62.618a25.6 25.6 0 01-25.6-25.6v-62.567a25.6 25.6 0 0125.6-25.6h62.592zm151.705 0a25.6 25.6 0 0125.6 25.6v62.567a25.6 25.6 0 01-25.6 25.6h-62.592a25.6 25.6 0 01-25.6-25.6v-62.567a25.6 25.6 0 0125.6-25.6h62.592z"/></svg>