<?xml version="1.0" standalone="no"?><!DOCTYPE svg PUBLIC "-//W3C//DTD SVG 1.1//EN" "http://www.w3.org/Graphics/SVG/1.1/DTD/svg11.dtd"><svg t="1602816946356" class="icon" viewBox="0 0 1024 1024" version="1.1" xmlns="http://www.w3.org/2000/svg" p-id="5460" xmlns:xlink="http://www.w3.org/1999/xlink" width="200" height="200"><defs><style type="text/css"></style></defs><path d="M212.308484 388.644675V1024H84.923394C38.024381 1024 0 986.453484 0 940.134735v-467.624796c0-46.318748 38.024381-83.865265 84.923394-83.865264H212.308484z m84.957527 0h43.178494c80.622611-102.740922 103.423586-198.074941 80.622611-299.450536-34.201463-152.029259 191.828566-90.999103 223.845504 43.212627 14.882074 62.293084 15.701271 151.61966 0 256.237909h294.15989c46.899012 0 84.923394 37.546516 84.923394 83.899397 0 10.03516-1.843193 20.002053-5.393045 29.422816l-40.755037 107.280638-16.383935 43.14436-21.162582 55.739511c-18.943924 49.868601-56.524574 137.010652-112.810215 261.460287A84.88926 84.88926 0 0 1 747.960741 1024H297.300144V388.644675z" p-id="5461"></path></svg>