<?xml version="1.0" encoding="UTF-8"?>
<svg width="12px" height="12px" viewBox="0 0 12 12" version="1.1" xmlns="http://www.w3.org/2000/svg" xmlns:xlink="http://www.w3.org/1999/xlink">
    <title>连接-connect</title>
    <defs>
        <filter color-interpolation-filters="auto" id="filter-1">
            <feColorMatrix in="SourceGraphic" type="matrix" values="0 0 0 0 0.168627 0 0 0 0 0.513725 0 0 0 0 0.980392 0 0 0 1.000000 0"></feColorMatrix>
        </filter>
    </defs>
    <g id="客户备份" stroke="none" stroke-width="1" fill="none" fill-rule="evenodd">
        <g id="连接-connect" transform="translate(-20.000000, -229.000000)" filter="url(#filter-1)">
            <g transform="translate(20.000000, 229.000000)">
                <rect id="矩形" fill="#000000" fill-rule="nonzero" opacity="0" x="0" y="0" width="12" height="12"></rect>
                <path d="M5.05664063,7.35351562 C4.95117188,7.35351562 4.846875,7.31367188 4.7671875,7.2328125 C4.60664063,7.07226562 4.60664063,6.81328125 4.7671875,6.65273438 L6.65390625,4.76601563 C6.81445312,4.60546875 7.0734375,4.60546875 7.23398437,4.76601563 C7.39453125,4.9265625 7.39453125,5.18554688 7.23398437,5.34609375 L5.34726562,7.2328125 C5.26640625,7.31367188 5.16210938,7.35351562 5.05664062,7.35351562 L5.05664063,7.35351562 Z" id="路径" fill="#151515" fill-rule="nonzero"></path>
                <path d="M3.73828125,10.8046875 C3.675,10.8046875 3.61054687,10.8023437 3.54726562,10.7976562 C2.8078125,10.7425781 2.12929687,10.36875 1.6875,9.76992187 C1.321875,9.27539062 1.15664062,8.6578125 1.22109375,8.03085937 C1.28320312,7.4203125 1.55859375,6.84375 1.99453125,6.4078125 L3.6234375,4.77890625 C3.78398437,4.61835937 4.04296875,4.61835937 4.20351562,4.77890625 C4.3640625,4.93945312 4.3640625,5.1984375 4.20351562,5.35898437 L2.57460937,6.98789062 C1.94414062,7.61835937 1.84570312,8.60507812 2.34726562,9.28125 C2.65195312,9.69257812 3.09960937,9.94101562 3.60820312,9.97851562 C3.6515625,9.98203125 3.69492187,9.98320312 3.73828125,9.98320312 C4.1953125,9.98320312 4.63359375,9.80390625 4.95703125,9.48164062 L6.64101562,7.79765625 C6.8015625,7.63710937 7.06054687,7.63710937 7.22109375,7.79765625 C7.38164062,7.95820312 7.38164062,8.2171875 7.22109375,8.37773437 L5.5359375,10.0617187 C5.05898437,10.5398437 4.41210937,10.8046875 3.73828125,10.8046875 Z M8.06132812,7.36640625 C7.95585937,7.36640625 7.8515625,7.3265625 7.771875,7.24570312 C7.61132812,7.08515625 7.61132812,6.82617187 7.771875,6.665625 L9.4265625,5.0109375 C10.0570312,4.38046875 10.1554687,3.39375 9.65390625,2.71757812 C9.34921875,2.30625 8.9015625,2.0578125 8.39414062,2.0203125 C7.89023437,1.9828125 7.39804687,2.16445312 7.04414062,2.5171875 L5.33320312,4.228125 C5.17265625,4.38867187 4.91367187,4.38867187 4.753125,4.228125 C4.59257812,4.06757812 4.59257812,3.80859375 4.753125,3.64804687 L6.4640625,1.93710937 C6.98789062,1.41445312 7.71328125,1.14609375 8.45507812,1.20234375 C8.81484375,1.22929687 9.15703125,1.32890625 9.4734375,1.49882812 C9.80390625,1.67695312 10.0875,1.92304687 10.3136719,2.23007812 C10.6792969,2.72460937 10.8445312,3.3421875 10.7800781,3.96914062 C10.7179687,4.5796875 10.4425781,5.15625 10.0066406,5.5921875 L8.35078125,7.24570312 C8.27109375,7.3265625 8.16679687,7.36640625 8.06132812,7.36640625 L8.06132812,7.36640625 Z" id="形状" fill="#151515" fill-rule="nonzero"></path>
            </g>
        </g>
    </g>
</svg>