<?xml version="1.0" encoding="UTF-8"?>
<svg width="74px" height="93px" viewBox="0 0 74 93" version="1.1" xmlns="http://www.w3.org/2000/svg" xmlns:xlink="http://www.w3.org/1999/xlink">
    <title>路径 3</title>
    <g id="客户备份" stroke="none" stroke-width="1" fill="none" fill-rule="evenodd">
        <g id="列表无数据" transform="translate(-272.000000, -128.000000)" fill="#2B83FA" fill-rule="nonzero">
            <path id="路径-3" d="M274.751202,217.324087 L275.665743,219.102743 C274.903335,219.494754 274.159675,219.854034 273.43615,220.179728 L272.897304,220.417687 L272.102696,218.582313 C272.952662,218.214328 273.836529,217.79439 274.751202,217.324087 Z M279.874292,214.366159 L280.945909,216.054838 C280.283255,216.47535 279.629701,216.876962 278.986109,217.259102 L278.345868,217.634729 L277.343006,215.904334 C278.16854,215.42589 279.013014,214.912716 279.874292,214.366159 Z M284.779691,211.022993 L285.954486,212.64159 C285.397565,213.045809 284.844634,213.439298 284.296174,213.821709 L283.476898,214.386973 L282.349341,212.735121 C283.149052,212.189237 283.95972,211.618136 284.779691,211.022993 Z M289.511,207.403969 L290.763044,208.96358 C290.231221,209.390523 289.701326,209.809399 289.173757,210.219898 L288.384197,210.829323 L287.168415,209.241282 C287.943841,208.647626 288.725154,208.03484 289.511,207.403969 Z M294.086637,203.570037 L295.401594,205.076983 C294.890597,205.522877 294.380054,205.962556 293.870299,206.395741 L293.1063,207.040611 L291.821401,205.507955 C292.574571,204.876537 293.33003,204.230249 294.086637,203.570037 Z M298.502879,199.569611 L299.872101,201.027429 C299.379732,201.489875 298.88667,201.947496 298.393206,202.400037 L297.652744,203.075005 L296.309878,201.592874 C297.041689,200.929826 297.773016,200.255119 298.502879,199.569611 Z M302.774876,195.416172 L304.193218,196.826246 L303.122691,197.893995 L303.122691,197.893995 L302.047262,198.948601 L300.653034,197.514681 C301.363367,196.82401 302.070931,196.124245 302.774876,195.416172 Z M306.91472,191.110466 L308.379302,192.472449 L307.346907,193.57341 L307.346907,193.57341 L306.306718,194.664384 L304.864961,193.278261 C305.553224,192.562373 306.236727,191.839533 306.91472,191.110466 Z M310.909582,186.668315 L312.418915,187.980532 L311.42467,189.114446 L311.42467,189.114446 L310.419953,190.241085 L308.932862,188.903714 C309.598585,188.163463 310.257713,187.418106 310.909582,186.668315 Z M314.750269,182.094756 L316.303993,183.354099 L315.349955,184.520644 L315.349955,184.520644 L314.382848,185.682354 L312.85132,184.396111 C313.492862,183.632228 314.126043,182.8649 314.750269,182.094756 Z M318.415877,177.401945 L320.01446,178.603831 L319.103667,179.803487 L319.103667,179.803487 L318.177173,181.000576 L316.601188,179.769207 C317.216402,178.981816 317.821479,178.192531 318.415877,177.401945 Z M321.90663,172.565444 L323.551579,173.703049 C323.172362,174.251388 322.787554,174.799746 322.397303,175.347959 L321.807864,176.170146 L320.18631,174.999435 C320.771928,174.188295 321.345533,173.376777 321.90663,172.565444 Z M325.194579,167.58427 L326.888103,168.648214 C326.533879,169.212047 326.173154,169.776559 325.806064,170.341593 L325.250674,171.189513 L323.581699,170.087459 C324.133556,169.251716 324.671336,168.417138 325.194579,167.58427 Z M328.23518,162.470688 L329.979919,163.448382 C329.65475,164.028662 329.322029,164.610322 328.981887,165.193209 L328.466125,166.068441 L326.747366,165.045763 C327.259874,164.18442 327.755957,163.325883 328.23518,162.470688 Z M330.989436,157.209872 L332.788433,158.08372 C332.497943,158.681755 332.198642,159.281952 331.89066,159.884159 L331.42219,160.788957 L329.650718,159.860578 C330.116298,158.972189 330.562678,158.088442 330.989436,157.209872 Z M333.393903,151.799644 L335.249796,152.545071 C335.00198,153.16206 334.743804,153.782121 334.475396,154.4051 L334.065126,155.341738 L332.237989,154.528367 C332.645998,153.611827 333.031441,152.70207 333.393903,151.799644 Z M335.368426,146.220034 L337.282007,146.801592 C337.088517,147.438258 336.882709,148.079097 336.664715,148.723953 L336.328603,149.694229 L334.443669,149.02563 C334.778787,148.080855 335.087177,147.145466 335.368426,146.220034 Z M338.39377,130.5 L344.059888,145.090925 L330.1207,143.78745 L338.39377,130.5 Z"></path>
        </g>
    </g>
</svg>