<?xml version="1.0" standalone="no"?><!DOCTYPE svg PUBLIC "-//W3C//DTD SVG 1.1//EN" "http://www.w3.org/Graphics/SVG/1.1/DTD/svg11.dtd"><svg t="1611884468181" class="icon" viewBox="0 0 1024 1024" version="1.1" xmlns="http://www.w3.org/2000/svg" p-id="7351" xmlns:xlink="http://www.w3.org/1999/xlink" width="200" height="200"><defs><style type="text/css"></style></defs><path d="M0 0m56.888889 0l910.222222 0q56.888889 0 56.888889 56.888889l0 910.222222q0 56.888889-56.888889 56.888889l-910.222222 0q-56.888889 0-56.888889-56.888889l0-910.222222q0-56.888889 56.888889-56.888889Z" fill="#558ECE" p-id="7352"></path><path d="M378.680889 455.111111L369.777778 561.664h17.92l4.949333-59.448889 23.836445 59.448889h12.088888l23.864889-59.448889 4.949334 59.448889h17.92L466.346667 455.111111h-14.222223L422.513778 528.896 392.931556 455.111111h-14.222223z m115.143111 0v106.552889h17.806222c29.44 0 53.475556-23.950222 53.475556-53.276444C565.105778 479.089778 541.070222 455.111111 511.630222 455.111111h-17.806222z m89.116444 0v106.666667h40.049778A31.317333 31.317333 0 0 0 654.222222 530.631111c0-11.264-6.456889-20.764444-15.530666-26.254222 3.868444-5.176889 6.627556-11.264 6.627555-18.204445A31.288889 31.288889 0 0 0 614.115556 455.111111H582.940444zM511.630222 472.860444c19.797333 0 35.669333 15.815111 35.669334 35.555556 0 19.683556-15.872 35.498667-35.669334 35.498667V472.860444z m89.116445 0h13.368889c7.480889 0 13.368889 5.859556 13.368888 13.340445a13.226667 13.226667 0 0 1-13.368888 13.312h-13.368889V472.860444z m0 44.401778h22.243555a13.312 13.312 0 0 1 13.397334 13.368889 13.198222 13.198222 0 0 1-13.397334 13.368889H600.746667v-26.737778z" fill="#FFFFFF" p-id="7353"></path><path d="M670.008889 761.685333h-316.017778A69.660444 69.660444 0 0 1 284.444444 692.138667V325.546667A69.660444 69.660444 0 0 1 353.962667 256h255.004444c11.662222-0.085333 22.897778 4.465778 31.232 12.657778l93.667556 93.667555c3.697778 3.612444 5.745778 8.590222 5.688889 13.767111v316.046223a69.660444 69.660444 0 0 1-69.546667 69.546666z m-316.017778-467.768889c-17.464889 0-31.630222 14.165333-31.630222 31.630223v366.592c0 17.464889 14.165333 31.601778 31.601778 31.601777h316.046222c17.464889 0 31.630222-14.136889 31.630222-31.573333V383.914667l-88.519111-88.490667a6.314667 6.314667 0 0 0-4.152889-1.536h-255.004444z" fill="#FFFFFF" p-id="7354"></path></svg>