<?xml version="1.0" standalone="no"?><!DOCTYPE svg PUBLIC "-//W3C//DTD SVG 1.1//EN" "http://www.w3.org/Graphics/SVG/1.1/DTD/svg11.dtd"><svg t="1637287770069" class="icon" viewBox="0 0 1024 1024" version="1.1" xmlns="http://www.w3.org/2000/svg" p-id="11023" xmlns:xlink="http://www.w3.org/1999/xlink" width="200" height="200"><defs><style type="text/css"></style></defs><path d="M967.111111 0a56.888889 56.888889 0 0 1 56.888889 56.888889v910.222222a56.888889 56.888889 0 0 1-56.888889 56.888889H56.888889a56.888889 56.888889 0 0 1-56.888889-56.888889V56.888889a56.888889 56.888889 0 0 1 56.888889-56.888889h910.222222zM585.841778 358.4H207.758222a28.302222 28.302222 0 0 0-28.558222 28.359111v250.481778c0 15.559111 12.8 28.359111 28.558222 28.359111h378.083556a28.302222 28.302222 0 0 0 28.558222-28.359111v-250.481778c0-15.559111-12.8-28.359111-28.558222-28.359111z m258.958222 13.994667c0-7.566222-5.262222-10.524444-11.747556-6.257778l-155.704888 102.684444c-6.570667 4.323556-11.747556 14.165333-11.747556 22.072889v42.211556c0 7.793778 5.262222 17.806222 11.747556 22.101333l155.704888 102.627556c6.570667 4.352 11.747556 1.507556 11.747556-6.257778z" fill="#9762EA" p-id="11024"></path></svg>