<?xml version="1.0" standalone="no"?><!DOCTYPE svg PUBLIC "-//W3C//DTD SVG 1.1//EN" "http://www.w3.org/Graphics/SVG/1.1/DTD/svg11.dtd"><svg t="1637287730158" class="icon" viewBox="0 0 1024 1024" version="1.1" xmlns="http://www.w3.org/2000/svg" p-id="10769" xmlns:xlink="http://www.w3.org/1999/xlink" width="200" height="200"><defs><style type="text/css"></style></defs><path d="M967.111111 0a56.888889 56.888889 0 0 1 56.888889 56.888889v910.222222a56.888889 56.888889 0 0 1-56.888889 56.888889H56.888889a56.888889 56.888889 0 0 1-56.888889-56.888889V56.888889a56.888889 56.888889 0 0 1 56.888889-56.888889h910.222222zM600.092444 298.666667l-7.537777 0.085333a149.475556 149.475556 0 0 0-90.083556 30.293333l-3.783111 3.555556a19.854222 19.854222 0 0 0-4.778667 22.556444c3.470222 7.822222 11.377778 12.657778 19.911111 12.174223a19.285333 19.285333 0 0 0 13.312-5.347556l5.831112-4.465778a104.220444 104.220444 0 0 1 104.874666-8.305778 100.778667 100.778667 0 0 1 57.287111 86.698667 92.672 92.672 0 0 1-36.124444 73.073778l-151.722667 141.568a103.936 103.936 0 0 1-111.616 28.984889 101.176889 101.176889 0 0 1-68.551111-91.306667 103.736889 103.736889 0 0 1 33.308445-70.428444l59.733333-56.092445c7.480889-6.229333 16.839111-9.671111 26.567111-9.813333 10.552889-0.284444 20.821333 3.555556 28.529778 10.780444 7.651556 7.139556 12.060444 17.066667 12.231111 27.505778 0.085333 7.793778-2.56 15.36-7.594667 21.390222l-59.733333 56.120889-3.783111 4.437334a18.062222 18.062222 0 0 0-5.688889 13.368888 20.48 20.48 0 0 0 6.542222 14.791112c4.124444 3.868444 9.671111 5.916444 15.36 5.688888a20.48 20.48 0 0 0 14.165333-5.347555l1.905778-0.910222 72.049778-67.584c8.533333-10.467556 12.288-24.007111 10.439111-37.376v-3.555556a79.843556 79.843556 0 0 0-25.002667-56.604444 82.744889 82.744889 0 0 0-58.453333-22.641778 89.656889 89.656889 0 0 0-55.011555 19.598222l-1.905778 1.792-60.672 56.092445A150.584889 150.584889 0 0 0 284.444444 588.145778c1.848889 77.454222 67.185778 138.837333 146.005334 137.159111a154.168889 154.168889 0 0 0 108.145778-44.515556l6.627555-7.111111 146.944-137.927111A133.432889 133.432889 0 0 0 739.555556 435.029333a138.325333 138.325333 0 0 0-44.515556-98.360889 143.331556 143.331556 0 0 0-102.485333-37.916444z" fill="#FC9153" p-id="10770"></path></svg>