<?xml version="1.0" standalone="no"?><!DOCTYPE svg PUBLIC "-//W3C//DTD SVG 1.1//EN" "http://www.w3.org/Graphics/SVG/1.1/DTD/svg11.dtd"><svg t="1610690269248" class="icon" viewBox="0 0 1403 1024" version="1.1" xmlns="http://www.w3.org/2000/svg" p-id="1199" xmlns:xlink="http://www.w3.org/1999/xlink" width="21.921875" height="16"><defs><style type="text/css"></style></defs><path d="M443.046895 476.109083c5.170917 0 10.273945-0.299845 15.286453-0.876906A278.120663 278.120663 0 0 0 456.274033 509.171271c0 28.00442 4.146917 55.047072 11.858033 80.53958a26.425989 26.425989 0 0 0-18.465944 25.260552c0 14.607558 11.750541 26.454276 26.250607 26.454277h13.809857a278.448796 278.448796 0 0 0 37.271337 52.902895H358.943116c-14.66979 0-26.561768-11.846718-26.561768-26.454277 0-14.607558 11.891978-26.448619 26.561768-26.448618h8.853923c14.675448 0 26.567425-11.846718 26.567425-26.454277 0-14.607558-11.891978-26.448619-26.567425-26.448618h-202.367293c-14.66979 0-26.567425-11.841061-26.567426-26.448619s11.897635-26.454276 26.567426-26.454276h157.537591c14.66979 0 26.567425-11.841061 26.567425-26.448619s-11.897635-26.448619-26.567425-26.448619h-22.969282c-14.66979 0-26.567425-11.846718-26.567425-26.454276 0-14.607558 11.897635-26.448619 26.567425-26.448619h42.544089c24.253525 28.332552 60.280221 46.289326 100.504751 46.289326z m647.920442 165.310939c14.66979 0 26.561768 11.846718 26.561768 26.454276 0 14.607558-11.891978 26.448619-26.561768 26.448619l-149.962254 0.005658a278.448796 278.448796 0 0 0 37.271337-52.897238l112.690917-0.005657z m52.308862-112.413702c11.343204 0 20.542232 11.846718 20.542232 26.454277 0 14.607558-9.199028 26.448619-20.542232 26.448618l-141.170564 0.005658a277.011801 277.011801 0 0 0 8.92747-52.908553h132.243094z m-70.022365-99.186563c14.675448 0 26.567425 11.841061 26.567426 26.448619s-11.891978 26.454276-26.567426 26.454276l-62.769503-0.005658a276.530917 276.530917 0 0 0-10.256972-52.897237h73.026475zM310.798144 343.854674c0 11.416751 1.442652 22.499713 4.163889 33.067845H252.684729c-14.675448 0-26.567425-11.846718-26.567425-26.454276 0-14.607558 11.891978-26.448619 26.567425-26.448619h59.584354a133.301039 133.301039 0 0 0-1.470939 19.83505z m691.618652-19.83505c14.66979 0 26.561768 11.841061 26.561768 26.448619s-11.891978 26.448619-26.561768 26.448619h-24.140376a278.448796 278.448796 0 0 0-37.26568-52.897238h61.406056z" fill="#A3B1BF" opacity=".15" p-id="1200"></path><path d="M966.407072 93.670541c-0.28853 0-0.582718-0.011315-0.876906-0.039602a298.34042 298.34042 0 0 0-19.150497-1.04663 9.917525 9.917525 0 0 1-9.696884-10.138165c0.118807-5.470762 4.508994-9.991072 10.138165-9.691227 6.85684 0.152751 13.736309 0.526144 20.440398 1.114519a9.917525 9.917525 0 0 1-0.848619 19.801105m58.237879 11.473326a9.957127 9.957127 0 0 1-3.015426-0.469569 245.545017 245.545017 0 0 0-18.36411-5.07474 9.923182 9.923182 0 0 1 4.531624-19.308906c6.732376 1.584088 13.419492 3.42842 19.863337 5.47642a9.923182 9.923182 0 0 1-3.015425 19.376795m53.660994 25.237923a9.843978 9.843978 0 0 1-5.414188-1.618033 197.954475 197.954475 0 0 0-16.282165-9.544133 9.923182 9.923182 0 0 1 9.204685-17.566409c6.16663 3.224751 12.197481 6.760663 17.934143 10.505901a9.92884 9.92884 0 0 1-5.442475 18.222674m43.845304 39.839823a9.917525 9.917525 0 0 1-7.818608-3.813127 160.784972 160.784972 0 0 0-12.333259-14.007867 9.917525 9.917525 0 0 1 14.098386-13.951293 179.93547 179.93547 0 0 1 13.872089 15.750365 9.911867 9.911867 0 0 1-7.81295 16.021922m26.561767 52.772774c-4.401503 0-8.429613-2.958851-9.595049-7.422586a126.206586 126.206586 0 0 0-5.929017-17.374055 9.917525 9.917525 0 1 1 18.256619-7.750718 145.283536 145.283536 0 0 1 6.868155 20.117922 9.917525 9.917525 0 0 1-9.600708 12.429437m1.001371 58.894143a9.917525 9.917525 0 0 1-9.66294-12.191823 109.075801 109.075801 0 0 0 2.659006-17.956773 9.923182 9.923182 0 0 1 19.801105 1.261613 128.786387 128.786387 0 0 1-3.151204 21.238099 9.923182 9.923182 0 0 1-9.645967 7.643227m-26.974763 52.405039a9.92884 9.92884 0 0 1-7.558364-16.350056 124.543293 124.543293 0 0 0 10.845348-14.788596 9.911867 9.911867 0 1 1 16.836596 10.488928 145.260906 145.260906 0 0 1-12.565215 17.159072 9.900552 9.900552 0 0 1-7.558365 3.490652m-46.063027 37.146873a9.917525 9.917525 0 0 1-4.888045-18.562122 184.195536 184.195536 0 0 0 15.897459-10.041989 9.917525 9.917525 0 1 1 11.467668 16.191646 204.562387 204.562387 0 0 1-17.617325 11.133879 9.894895 9.894895 0 0 1-4.865415 1.278586m-54.967867 22.426165a9.917525 9.917525 0 0 1-2.709923-19.461657 279.065459 279.065459 0 0 0 18.222674-5.85547 9.917525 9.917525 0 0 1 6.738033 18.658299 301.853702 301.853702 0 0 1-19.529547 6.279779c-0.905193 0.254586-1.821702 0.37905-2.71558 0.379049M435.907182 486.303823a9.923182 9.923182 0 0 1-4.067712-18.969458 409.973392 409.973392 0 0 1 18.754475-7.846895 9.911867 9.911867 0 1 1 7.184972 18.488574c-6.053481 2.35916-12.061702 4.871072-17.820994 7.456531a9.917525 9.917525 0 0 1-4.050741 0.865591m-51.833635 28.892641a9.911867 9.911867 0 0 1-5.623514-18.103868 316.534807 316.534807 0 0 1 17.198674-10.998099 9.917525 9.917525 0 1 1 10.155138 17.040265 295.704044 295.704044 0 0 0-16.123757 10.313547 9.877923 9.877923 0 0 1-5.600884 1.748155m-45.135204 38.504663a9.917525 9.917525 0 0 1-7.298122-16.632929c2.048-2.217724 4.158232-4.412818 6.336354-6.562651 2.749525-2.726895 5.544309-5.374586 8.384354-7.977017a9.917525 9.917525 0 1 1 13.379889 14.652818c-2.647691 2.415735-5.255779 4.893702-7.81295 7.428243-1.957481 1.929193-3.847072 3.892331-5.680089 5.883757a9.900552 9.900552 0 0 1-7.309436 3.207779m-32.168309 49.689458a9.911867 9.911867 0 0 1-9.142453-13.753282 174.03474 174.03474 0 0 1 9.278232-18.856309 9.923182 9.923182 0 0 1 17.243933 9.815691 155.749834 155.749834 0 0 0-8.237259 16.700817 9.90621 9.90621 0 0 1-9.142453 6.093083m-12.514299 57.830542h-0.316817a9.934497 9.934497 0 0 1-9.606365-10.228685c0.226298-7.009591 0.865591-14.053127 1.917878-20.932597a9.917525 9.917525 0 1 1 19.608752 2.998453 154.872928 154.872928 0 0 0-1.69158 18.556464 9.923182 9.923182 0 0 1-9.911868 9.606365m8.220288 58.650873c-4.226122 0-8.14674-2.726895-9.459271-6.969989a199.210431 199.210431 0 0 1-5.159602-20.225415 9.917525 9.917525 0 0 1 19.461657-3.875359c1.205039 6.070453 2.76084 12.191823 4.639116 18.200044a9.923182 9.923182 0 0 1-9.4819 12.870719m25.560397 53.508243a9.900552 9.900552 0 0 1-8.305149-4.486365 238.179006 238.179006 0 0 1-10.590762-17.770077 9.917525 9.917525 0 0 1 17.481547-9.391382 218.264751 218.264751 0 0 0 9.696884 16.293481 9.917525 9.917525 0 0 1-8.28252 15.354343m38.108641 45.508596c-2.466652 0-4.938961-0.916508-6.85684-2.755182a290.634961 290.634961 0 0 1-14.324685-14.703735 9.923182 9.923182 0 0 1 14.698078-13.323315 270.471779 270.471779 0 0 0 13.340287 13.702365 9.911867 9.911867 0 0 1-6.85684 17.079867m46.628774 36.796111c-1.849989 0-3.733923-0.520486-5.408531-1.612376a354.405834 354.405834 0 0 1-16.763049-11.631735 9.923182 9.923182 0 0 1 11.790143-15.954033 332.302144 332.302144 0 0 0 15.812597 10.969812 9.917525 9.917525 0 0 1-5.43116 18.228332" fill="#A3B1BF" opacity=".254" p-id="1201"></path><path d="M567.788199 892.701702h312.5859L925.76389 1018.342541H522.398409z" fill="#A3B1BF" opacity=".249" p-id="1202"></path><path d="M454.514564 846.412376h248.181392l44.524199 125.640839h-337.241105z" fill="#A3B1BF" opacity=".352" p-id="1203"></path><path d="M508.333967 929.214939v0.158409a8.486188 8.486188 0 0 1-8.508818 8.50316l-14.31337-0.033944 0.033945 14.31337a8.486188 8.486188 0 0 1-8.50316 8.508817h-0.158409a8.486188 8.486188 0 0 1-8.469216-8.469215l-0.028287-14.398232-14.392575-0.02263a8.486188 8.486188 0 0 1-8.469215-8.469215v-0.152752a8.486188 8.486188 0 0 1 8.469215-8.508817h0.039603l14.31337 0.028287-0.033945-14.31337a8.486188 8.486188 0 0 1 8.50316-8.503161h0.158409a8.486188 8.486188 0 0 1 8.469216 8.469216l0.028287 14.386917 14.392574 0.033945a8.486188 8.486188 0 0 1 8.469216 8.469215zM443.046895 211.605923c53.757171 0 100.023867 32.072133 120.701878 78.129502l2.800442-2.155491a276.508287 276.508287 0 0 1 167.449459-56.138962c153.385017 0 277.730298 124.345282 277.730298 277.730299 0 146.782762-113.867669 266.969812-258.087602 277.045746l-19.642696 20.519602-19.512575-20.508288C570.203934 776.21463 456.274033 655.993635 456.274033 509.171271c0-11.784486 0.73547-23.399249 2.161149-34.79337l-0.107491 0.848618c-5.006851 0.582718-10.109878 0.882564-15.275139 0.882564-73.03779 0-132.254409-59.210961-132.254408-132.254409 0-73.03779 59.210961-132.248751 132.254408-132.248751z m290.951779 39.800221c-142.426519 0-257.889591 115.468729-257.889591 257.895248s115.463072 257.889591 257.889591 257.889591c142.432177 0 257.895249-115.463072 257.895249-257.889591 0-142.432177-115.468729-257.895249-257.895249-257.895248zM443.046895 231.44663c-62.08495 0-112.413702 50.328751-112.413702 112.413701s50.328751 112.413702 112.413702 112.413702c6.319381 0 12.519956-0.520486 18.556464-1.527514l0.763757-3.705635C474.773923 392.786033 505.437348 341.297503 548.088928 302.843757l-0.254585 0.226298c-16.327425-41.921768-57.083757-71.623425-104.787448-71.623425z" fill="#A3B1BF" p-id="1204"></path><path d="M443.046895 231.44663c47.698033 0 88.460022 29.701657 104.787448 71.629083-43.420994 39.240133-74.378608 92.012906-86.230984 151.659491a112.147801 112.147801 0 0 1-18.556464 1.533172c-62.08495 0-112.413702-50.328751-112.413702-112.413702s50.328751-112.413702 112.413702-112.413702z" fill="#A3B1BF" opacity=".15" p-id="1205"></path><path d="M733.998674 251.28168c142.432177 0 257.895249 115.457414 257.895249 257.889591 0 142.432177-115.468729 257.889591-257.895249 257.889591S476.109083 651.603448 476.109083 509.171271c0-142.432177 115.463072-257.889591 257.889591-257.889591z m0 19.835049c-131.47368 0-238.054541 106.580862-238.054541 238.054542 0 131.47368 106.586519 238.054541 238.054541 238.054541 131.479337 0 238.054541-106.580862 238.054541-238.054541 0-131.47368-106.580862-238.054541-238.054541-238.054542z" fill="#A3B1BF" opacity=".248" p-id="1206"></path><path d="M731.107713 367.68389c40.320707 0 74.429525 26.567425 85.755757 63.137237h3.926276v57.38926h-28.926586V430.81547h2.09326a68.22895 68.22895 0 0 0-62.854365-41.604951 68.22895 68.22895 0 0 0-62.843049 41.604951h7.880839v57.394917h-34.714165V430.81547h3.926276c11.320575-36.564155 45.429392-63.13158 85.755757-63.13158z" fill="#A3B1BF" opacity=".251" p-id="1207"></path><path d="M731.107713 358.954431c25.147403 0 47.958276 9.917525 64.670409 26.024309 16.174674 15.591956 26.635315 36.982807 27.95916 60.79505l0.096177 2.387448 0.056574 31.314033h26.346785c3.903646 0 7.439558 1.584088 9.996729 4.146917 2.308243 2.302586 3.818785 5.397215 4.096 8.842608l0.050917 1.159779v70.503248c0 22.652464-9.182055 43.166409-24.027226 58.005923a81.767249 81.767249 0 0 1-55.748597 23.998939l-2.262984 0.028287h-96.685966c-22.652464 0-43.166409-9.182055-58.005923-24.027226a81.767249 81.767249 0 0 1-23.998939-55.748597l-0.028288-2.257326V493.624575c0-3.903646 1.584088-7.445215 4.14126-10.002387a14.098387 14.098387 0 0 1 8.842608-4.096l1.159779-0.04526 20.570519-0.005657v-31.314033c0.752442-24.768354 11.377149-47.070055 28.094939-63.182498a92.912442 92.912442 0 0 1 64.676067-26.024309z m16.123757 166.685702l-34.091846 0.152751-1.035315 0.198011a13.747624 13.747624 0 0 0-8.746431 6.251492c-1.708552 2.772155-2.602431 6.347669-1.951823 10.443668l10.008044 42.182011 0.37905 1.386078a20.366851 20.366851 0 0 0 14.743337 13.736309 19.914254 19.914254 0 0 0 15.167647-2.432707c4.209149-2.591116 7.660199-6.822895 9.312176-12.463381l10.30789-44.128177 0.050917-1.086232a14.098387 14.098387 0 0 0-4.146917-10.098564 14.098387 14.098387 0 0 0-9.996729-4.141259z m-16.123757-166.442431a92.459845 92.459845 0 0 0-64.15558 25.713149c-16.74042 16.033238-27.399072 38.272707-28.230719 62.978829v31.585591h34.329459v-31.246144l0.124464-1.900906a57.145989 57.145989 0 0 1 17.707845-36.948862 58.141702 58.141702 0 0 1 40.167956-15.987978c15.574983 0 29.724287 6.07611 40.167956 15.982321a57.406232 57.406232 0 0 1 17.939801 38.86674v31.234829h34.340774l-0.056575-31.591249-0.113149-2.387447a91.141657 91.141657 0 0 0-28.066652-60.580067 92.437215 92.437215 0 0 0-64.15558-25.718806z m-0.056575 34.43695a57.706077 57.706077 0 0 0-39.528663 15.563668 57.015867 57.015867 0 0 0-18.081237 38.595183l-0.011315 31.681768h115.395182l-0.192354-31.704398-0.135779-1.883934a56.970608 56.970608 0 0 0-17.917171-36.682961 57.689105 57.689105 0 0 0-39.528663-15.569326z" fill="#A3B1BF" p-id="1208"></path><path d="M245.098077 570.32274v0.152752a8.486188 8.486188 0 0 1-8.50316 8.508817l-14.31337-0.033944 0.028287 14.31337a8.486188 8.486188 0 0 1-8.50316 8.50316h-0.158409a8.486188 8.486188 0 0 1-8.463558-8.463558l-0.028287-14.398232-14.392575-0.028287a8.486188 8.486188 0 0 1-8.469215-8.463558v-0.158409a8.486188 8.486188 0 0 1 8.463558-8.50316h0.039602l14.31337 0.028287-0.028287-14.31337a8.486188 8.486188 0 0 1 8.50316-8.50316h0.158409a8.486188 8.486188 0 0 1 8.463558 8.469215l0.033945 14.386917 14.392574 0.033945a8.486188 8.486188 0 0 1 8.463558 8.469215zM1275.140243 507.655072v0.158409a8.486188 8.486188 0 0 1-8.50316 8.50316l-14.31337-0.033945 0.028287 14.31337a8.486188 8.486188 0 0 1-8.50316 8.508818h-0.158409a8.486188 8.486188 0 0 1-8.463558-8.469215l-0.033945-14.398233-14.392574-0.022629a8.486188 8.486188 0 0 1-8.463558-8.469216v-0.152751a8.486188 8.486188 0 0 1 8.463558-8.508818h0.039602l14.31337 0.028287-0.028287-14.31337a8.486188 8.486188 0 0 1 8.50316-8.497503h0.158409a8.486188 8.486188 0 0 1 8.463558 8.463558l0.033944 14.386918 14.392575 0.039602a8.486188 8.486188 0 0 1 8.463558 8.463558zM446.712928 340.047204l11.416752 10.166453-18.177415 16.45189c2.975823 5.470762 4.667403 11.773171 4.667404 18.47726 0 21.023116-16.632928 38.063381-37.158188 38.063381-20.519602 0-37.15253-17.040265-37.152531-38.063381 0-21.023116 16.632928-38.063381 37.152531-38.063382a36.434033 36.434033 0 0 1 22.714696 7.937415l16.536751-14.969636z m-39.251447 24.59863c-11.049017 0-20.004773 9.176398-20.004774 20.496973 0 11.314917 8.955757 20.496972 20.004774 20.496972s20.004773-9.176398 20.004773-20.496972c0-11.314917-8.955757-20.496972-20.004773-20.496973z m63.329591-120.153105l24.847558 24.841901-12.129591 12.129591 11.348862 11.343204 17.402342-15.914431 10.138166 8.90484-50.492818 46.17052-10.138166-8.899183 24.64389-22.539315-10.981127-10.981127-12.129591 12.123934-24.841901-24.841901 12.123934-12.129591 12.423779 12.423779 8.084508-8.084508-12.423779-12.423779 12.123934-12.123934zM930.934807 0l-117.584619 103.723845 119.032928 35.138475v-44.037657l-64.681724-3.869702 64.676067-21.520972z" fill="#A3B1BF" p-id="1209"></path><path d="M964.144088 97.002785c-0.786387 0-1.578431-0.090519-2.364817-0.282873-6.144-1.510541-12.497326-2.964508-19.065636-4.373216a9.923182 9.923182 0 0 1-7.614939-11.778829 9.957127 9.957127 0 0 1 11.784486-7.614939c6.755006 1.453967 13.28937 2.947536 19.603094 4.492022a9.923182 9.923182 0 0 1-2.347845 19.557835m56.851801 17.408c-1.188066 0-2.393105-0.209326-3.564199-0.656266a373.335691 373.335691 0 0 0-18.217016-6.460817 9.917525 9.917525 0 0 1 6.177944-18.85631c6.692773 2.189436 13.142276 4.480707 19.16747 6.800265a9.92884 9.92884 0 0 1-3.564199 19.178785m52.427669 27.681945c-2.081945 0-4.169547-0.650608-5.962962-2.002741a152.785326 152.785326 0 0 0-15.541038-10.200397 9.917525 9.917525 0 1 1 9.911867-17.187359 173.220066 173.220066 0 0 1 17.577724 11.558187 9.911867 9.911867 0 0 1-5.985591 17.83231m32.892464 47.799867a9.917525 9.917525 0 0 1-9.753459-8.197657 52.240972 52.240972 0 0 0-5.49905-15.637216 9.90621 9.90621 0 0 1 4.033768-13.430806 9.900552 9.900552 0 0 1 13.430807 4.02811 71.849724 71.849724 0 0 1 7.569679 21.583205 9.911867 9.911867 0 0 1-9.781745 11.654364m-13.549614 56.444464a9.911867 9.911867 0 0 1-8.50316-14.992265 111.21432 111.21432 0 0 0 8.056221-16.236906 9.911867 9.911867 0 1 1 18.471602 7.224575 131.02674 131.02674 0 0 1-9.493215 19.167469c-1.855646 3.111602-5.148287 4.837127-8.531448 4.837127m-37.718276 45.74621a9.923182 9.923182 0 0 1-6.890784-17.05158 303.024796 303.024796 0 0 0 13.385547-13.747624 9.917525 9.917525 0 1 1 14.664132 13.351602 315.341083 315.341083 0 0 1-14.26811 14.664133c-1.923536 1.855646-4.401503 2.78347-6.890785 2.783469m-45.497282 38.284022a9.917525 9.917525 0 0 1-5.951646-17.860596c5.346298-3.999823 10.483271-7.988331 15.410917-11.937238a9.923182 9.923182 0 0 1 12.423779 15.461834c-5.091713 4.096-10.409724 8.21463-15.942718 12.361547-1.782099 1.329503-3.875359 1.98011-5.940332 1.980111m-49.021878 33.718453a9.917525 9.917525 0 0 1-5.340641-18.279249c5.623514-3.592486 11.099934-7.168 16.423602-10.726541a9.917525 9.917525 0 1 1 11.032044 16.491491c-5.436818 3.637746-11.043359 7.292464-16.791337 10.964155a9.889238 9.889238 0 0 1-5.323668 1.550144m-543.206542 240.560795a9.92884 9.92884 0 0 1-3.762209-19.105237c6.042166-2.472309 12.225768-4.950276 18.539491-7.433901a9.917525 9.917525 0 1 1 7.264177 18.460288c-6.228862 2.444022-12.327602 4.893702-18.284906 7.332066a9.90621 9.90621 0 0 1-3.756553 0.746784m-54.470011 23.95368a9.92884 9.92884 0 0 1-4.265723-18.884597c5.895072-2.800442 11.959867-5.600884 18.200044-8.406983a9.917525 9.917525 0 1 1 8.135425 18.092552c-6.110055 2.743867-12.050387 5.493392-17.820994 8.231602-1.369105 0.656265-2.817414 0.961768-4.243094 0.961768m-52.682254 27.631028a9.923182 9.923182 0 0 1-5.029481-18.482917c5.612199-3.292641 11.478983-6.585282 17.583381-9.889238a9.917525 9.917525 0 1 1 9.442299 17.441945 578.91642 578.91642 0 0 0-16.989348 9.561105 9.866608 9.866608 0 0 1-5.006851 1.369105m-49.004906 33.633591a9.911867 9.911867 0 0 1-6.336354-17.549436 301.859359 301.859359 0 0 1 16.225591-12.531271 9.923182 9.923182 0 0 1 11.603448 16.09547c-5.414188 3.903646-10.522873 7.841238-15.161989 11.693967a9.900552 9.900552 0 0 1-6.330696 2.29127m-38.527293 44.778785a9.923182 9.923182 0 0 1-8.825636-14.42652 116.775602 116.775602 0 0 1 11.66568-18.217016 9.917525 9.917525 0 0 1 15.699448 12.129591c-3.903646 5.05211-7.168 10.132508-9.696884 15.099757-1.753812 3.42842-5.233149 5.414188-8.848266 5.414188m-2.602431 57.270453c-3.847072 0-7.513105-2.246011-9.12548-6.013879a77.037613 77.037613 0 0 1-5.849812-21.854762 9.917525 9.917525 0 1 1 19.716243-2.178122c0.588376 5.374586 2.064972 10.828376 4.373215 16.231249a9.917525 9.917525 0 0 1-9.114166 13.815514m37.339227 45.542541c-2.217724 0-4.441105-0.73547-6.285436-2.246011a196.608 196.608 0 0 1-15.444862-14.041812 9.911867 9.911867 0 1 1 14.132331-13.911691c4.129945 4.192177 8.803006 8.435271 13.894718 12.610476a9.92884 9.92884 0 0 1-6.302408 17.594696m49.576309 32.74537c-1.618033 0-3.270011-0.396022-4.780553-1.233326a443.884199 443.884199 0 0 1-17.543779-10.189083 9.923182 9.923182 0 0 1 10.370122-16.915801 421.82011 421.82011 0 0 0 16.751735 9.730829 9.923182 9.923182 0 0 1-4.797525 18.613038m53.496928 26.018652a9.843978 9.843978 0 0 1-3.948906-0.825989c-6.308066-2.73821-12.418122-5.487735-18.330166-8.242917a9.911867 9.911867 0 1 1 8.373039-17.985061c5.759293 2.687293 11.710939 5.357613 17.860597 8.027934a9.923182 9.923182 0 0 1-3.960221 19.026033m55.290342 21.996199c-1.131492 0-2.285613-0.198011-3.417105-0.605348-6.392928-2.347845-12.627448-4.695691-18.72053-7.043536a9.923182 9.923182 0 0 1 7.139713-18.511204c5.996906 2.308243 12.129591 4.627801 18.420685 6.924729a9.923182 9.923182 0 0 1-3.422763 19.235359" fill="#A0AEBB" p-id="1210"></path></svg>