<?xml version="1.0" standalone="no"?><!DOCTYPE svg PUBLIC "-//W3C//DTD SVG 1.1//EN" "http://www.w3.org/Graphics/SVG/1.1/DTD/svg11.dtd"><svg t="1611826035530" class="icon" viewBox="0 0 1024 1024" version="1.1" xmlns="http://www.w3.org/2000/svg" p-id="1668" xmlns:xlink="http://www.w3.org/1999/xlink" width="200" height="200"><defs><style type="text/css"></style></defs><path d="M967.111111 0a56.888889 56.888889 0 0 1 56.888889 56.888889v910.222222a56.888889 56.888889 0 0 1-56.888889 56.888889H56.888889a56.888889 56.888889 0 0 1-56.888889-56.888889V56.888889a56.888889 56.888889 0 0 1 56.888889-56.888889h910.222222zM433.863111 221.269333l-3.925333 0.256c-16.213333 1.820444-31.317333 13.368889-41.870222 28.842667l-1.109334 2.161778-0.739555 2.446222c-8.533333 32.426667 16.355556 113.436444 58.766222 189.155556l1.137778 1.991111-3.982223 14.961777a1511.537778 1511.537778 0 0 1-46.392888 141.738667l-0.881778 2.275556-6.058667 1.991111c-15.274667 5.233778-29.952 10.695111-43.889778 16.270222l-13.653333 5.660444c-4.465778 1.877333-8.846222 3.783111-13.141333 5.688889l-12.515556 5.717334c-4.096 1.934222-8.078222 3.84-11.946667 5.745777l-11.264 5.717334a532.48 532.48 0 0 0-5.376 2.844444l-10.24 5.632c-19.683556 11.178667-34.872889 21.816889-44.259555 30.890667-17.834667 17.265778-29.980444 52.252444-26.140445 79.075555 5.091556 35.157333 34.417778 51.456 83.313778 39.822223 26.254222-6.257778 54.243556-37.888 82.460445-89.031111l5.831111-10.808889c1.962667-3.697778 3.896889-7.509333 5.831111-11.406223l5.859555-11.946666 5.831112-12.430222 5.831111-12.970667 5.831111-13.454222 5.802666-13.937778 5.802667-14.392889 13.852445-4.352a1088.853333 1088.853333 0 0 1 132.010666-31.203556l4.124445-0.682666 2.56 1.991111c47.160889 35.441778 106.752 63.345778 140.117333 72.817778 21.788444 6.200889 51.882667 8.533333 75.605333 4.380444 32.654222-5.688889 53.191111-22.954667 53.191111-52.565333 0-34.531556-28.757333-52.309333-75.889777-58.254222l-8.760889-0.938667-9.159111-0.711111-4.721778-0.256-9.728-0.312889-4.977778-0.085333-10.24 0.028444-5.262222 0.113778-10.752 0.369778a602.168889 602.168889 0 0 0-5.489778 0.256l-11.207111 0.682666-11.52 0.910222a1306.965333 1306.965333 0 0 0-98.816 12.202667l-4.096-3.299555a288.199111 288.199111 0 0 1-31.687111-30.350223 537.884444 537.884444 0 0 1-62.264889-87.04l0.739556-2.730666 1.820444-7.281778 3.470222-14.279111 3.185778-13.852445 2.901333-13.397333 2.616889-12.913778 2.360889-12.401778 1.052445-6.030222 1.877333-11.605333 1.592889-11.064889 0.682666-5.319111 1.137778-10.154667c2.702222-27.989333 1.621333-48.554667-3.783111-59.335111-15.189333-30.208-34.332444-43.975111-55.381333-41.585778z m-47.928889 406.186667l-4.096 9.955556-5.688889 13.226666-5.688889 12.743111-5.688888 12.231111-5.688889 11.719112c-3.811556 7.651556-7.566222 14.933333-11.320889 21.816888l-5.632 10.097778c-24.234667 42.382222-47.388444 68.494222-66.673778 73.102222-39.111111 9.329778-57.543111-0.910222-60.956444-24.632888-3.015111-20.963556 7.111111-50.090667 20.764444-63.317334 7.082667-6.883556 18.204444-14.933333 32.654222-23.552l9.016889-5.233778c10.979556-6.200889 23.495111-12.600889 37.262222-19.029333l12.117334-5.518222c4.124444-1.820444 8.362667-3.669333 12.686222-5.489778l13.226667-5.432889c8.988444-3.612444 18.318222-7.168 27.932444-10.638222l5.774222-2.048z m321.905778-59.420444a338.488889 338.488889 0 0 1 37.603556 1.706666l8.305777 0.995556c36.295111 5.205333 58.168889 18.033778 58.168889 39.424 0 19.143111-13.141333 30.236444-38.030222 34.56-20.821333 3.640889-48.156444 1.536-67.413333-3.953778a89.827556 89.827556 0 0 1-2.076445-0.597333l-4.920889-1.649778-5.916444-2.133333-6.741333-2.56-7.424-3.015112-7.964445-3.356444-8.248889-3.640889-8.533333-3.925333-10.439111-5.063111-10.353778-5.290667a468.366222 468.366222 0 0 1-49.066667-29.610667l-0.568889-0.426666 12.373334-1.792 16.583111-2.190223a1322.581333 1322.581333 0 0 1 56.689778-5.802666l11.292444-0.768c1.848889-0.113778 3.697778-0.227556 5.518222-0.284445l10.752-0.426666z m-248.576-99.726223l2.56 4.096 6.968889 10.808889a527.416889 527.416889 0 0 0 45.454222 59.448889l6.144 6.712889 4.266667 4.380444c2.901333 2.901333 5.859556 5.774222 8.931555 8.618667l6.343111 5.688889-0.768 0.170667 0.199112 0.142222-3.640889 0.682667-15.644445 3.043555c-36.152889 7.253333-70.485333 15.928889-102.968889 25.884445l2.218667-5.859556a1542.826667 1542.826667 0 0 0 35.413333-108.259556l4.181334-15.075555 0.170666 0.227555 0.170667-0.711111z m-25.201778-228.750222c11.662222-0.227556 23.523556 9.102222 34.901334 31.772445l0.682666 1.536 0.597334 1.735111c1.706667 5.575111 2.389333 14.023111 2.104888 24.917333l-0.341333 7.594667-0.625778 8.305777-0.881777 8.931556c-0.512 4.636444-1.137778 9.500444-1.848889 14.592l-1.592889 10.439111-1.848889 11.008-2.104889 11.52-2.389333 12.003556-2.616889 12.458666-2.872889 12.913778-2.56 10.638222-3.982222-7.793777c-32.483556-64.284444-50.801778-128.369778-44.999111-151.665778l0.227555-0.853334 1.479111-2.019555c6.912-8.988444 15.701333-15.559111 24.092445-17.464889l2.503111-0.455111z" fill="#EC5D78" p-id="1669"></path></svg>