<?xml version="1.0" standalone="no"?><!DOCTYPE svg PUBLIC "-//W3C//DTD SVG 1.1//EN" "http://www.w3.org/Graphics/SVG/1.1/DTD/svg11.dtd"><svg t="1606813275537" class="icon" viewBox="0 0 1024 1024" version="1.1" xmlns="http://www.w3.org/2000/svg" p-id="8343" xmlns:xlink="http://www.w3.org/1999/xlink" width="200" height="200"><defs><style type="text/css"></style></defs><path d="M791.990976 648.960094c-70.271982-1.1776-133.145567 44.108789-155.212761 111.769572-12.108797 37.222391-55.603186 52.607987-88.755178 32.716792A848.358188 848.358188 0 0 1 249.578312 488.576134a25.548794 25.548794 0 0 1 8.345598-34.764791 24.755194 24.755194 0 0 1 12.979197-3.712c85.580779 0 162.175959-53.811187 187.673553-133.196766C502.301449 181.043411 405.994273 48.768244 271.543107 48.768244A193.433552 193.433552 0 0 0 173.034331 75.520237a201.26715 201.26715 0 0 0-99.071975 160.33276c-0.256 3.251199-0.3072 6.323198-0.3072 13.593597 0 7.116798 0.3328 13.823997 1.1008 22.143994 11.852797 391.628702 327.807918 703.667024 714.623821 703.667024l6.579198-0.0512c2.124799-0.0512 3.942399-0.128 5.580799-0.256a161.94556 161.94556 0 0 0 135.500766-97.791975 166.911958 166.911958 0 0 0 13.235197-68.377583c-1.7152-85.657579-73.855982-158.48956-158.284761-159.84636m206.335949 158.84796a216.166346 216.166346 0 0 1-17.100796 88.652778c-30.975992 72.115182-98.687975 120.98557-175.999956 127.155168a150.271962 150.271962 0 0 1-8.345598 0.3584c-2.124799 0.0512-3.814399 0.0512-7.500798 0.0512C376.55428 1024 39.325565 690.995283 26.755968 274.739387A264.038334 264.038334 0 0 1 25.578368 249.446594c0-8.499198 0.0768-12.287997 0.4096-17.049596a250.188737 250.188737 0 0 1 122.879969-199.03995A241.17754 241.17754 0 0 1 271.594306 0.000256c166.911958 0 286.643128 164.454359 232.755142 332.031917-28.083193 87.270378-104.396774 149.452763-193.945551 163.737559a799.2318 799.2318 0 0 0 262.143934 255.743936c7.167998 4.300799 16.307196 1.024 18.662396-6.092798 28.620793-87.910378 110.284772-146.713563 201.548749-145.203164 110.335972 1.7152 203.366349 95.667176 205.593549 207.564748" p-id="8344"></path></svg>