<?xml version="1.0" standalone="no"?><!DOCTYPE svg PUBLIC "-//W3C//DTD SVG 1.1//EN" "http://www.w3.org/Graphics/SVG/1.1/DTD/svg11.dtd"><svg t="1603440675563" class="icon" viewBox="0 0 1024 1024" version="1.1" xmlns="http://www.w3.org/2000/svg" p-id="2152" xmlns:xlink="http://www.w3.org/1999/xlink" width="100" height="100"><defs><style type="text/css"></style></defs><path d="M113.777778 0h796.444444c62.839467 0 113.777778 50.938311 113.777778 113.777778v796.444444c0 62.839467-50.938311 113.777778-113.777778 113.777778H113.777778C50.938311 1024 0 973.061689 0 910.222222V113.777778C0 50.938311 50.938311 0 113.777778 0z" fill="#F0F0F0" p-id="2153"></path><path d="M676.864 715.707733c89.964089 46.227911 141.175467 112.128 170.450489 173.431467l3.345067 7.190756c1.627022 3.572622 3.1744 7.145244 4.653511 10.683733l2.8672 7.042844 2.685155 6.974578 2.503111 6.883556 2.343823 6.803911c0.750933 2.2528 1.479111 4.482844 2.173155 6.701511l2.025245 6.599111 1.865955 6.462578 2.537245 9.477689 1.524622 6.144 1.388089 5.996089 1.262933 5.8368 1.149156 5.677511 1.046755 5.495466 1.365333 7.907556 1.137778 7.463822 1.2288 9.216 0.728178 6.314667H136.533333l1.592889-10.604089 1.194667-7.054222 1.365333-7.509334 1.046756-5.267911 1.7408-8.260266 1.297066-5.723023 1.410845-5.893689 1.536-6.0416 2.548622-9.352533 1.865956-6.405689 2.013866-6.519466 1.058134-3.310934 2.241422-6.712889 2.389333-6.792533 2.571378-6.906311a418.816 418.816 0 0 1 7.168-17.601422l3.185778-7.156623 1.672533-3.595377 3.4816-7.236267c2.389333-4.835556 4.9152-9.705244 7.5776-14.586311l4.107378-7.327289c30.9248-53.794133 79.655822-108.635022 157.127111-148.445867 97.655467 77.869511 232.482133 77.869511 330.1376 0zM511.7952 295.822222c113.914311 0 204.572444 91.989333 204.572444 207.598934 0 113.208889-92.9792 207.576178-204.572444 207.576177-113.914311 0-204.606578-91.989333-204.606578-207.576177C307.2 387.822933 397.880889 295.822222 511.7952 295.822222z" fill="#FFFFFF" p-id="2154"></path></svg>