<svg class="icon" width="200" height="200" viewBox="0 0 1024 1024" xmlns="http://www.w3.org/2000/svg"><path d="M644.912 320.378l7.373 8.533a1107.588 1107.588 0 01-7.373 59.734h58.812l8.704 10.137 1.502-10.137h225.142c46.9 0 84.924 37.546 84.924 83.899 0 10.035-1.844 20.002-5.393 29.423L940.3 708.13c-18.944 49.869-56.525 137.01-112.81 261.46a84.89 84.89 0 01-79.53 54.41H297.3V388.645c97.723-132.062 138.99-231.867 123.801-299.45-34.201-152.03 191.829-91 223.846 43.212 11.537 48.264 14.609 112.742 8.123 187.971h-8.123zM365.566 955.733h382.429c7.168 0 13.38-4.266 15.7-10.376l1.64-3.926c55.705-123.186 92.876-209.338 111.171-257.534l78.302-206.165a14.677 14.677 0 00.955-5.188c0-8.431-7.27-15.633-16.657-15.633H565.69l11.776-78.37c14.166-94.651 13.995-176.264 1.092-230.296-8.362-35.09-47.103-69.325-85.742-78.268a74.342 74.342 0 00-6.178-1.195 94.362 94.362 0 001.058 5.462c19.968 88.848-22.972 198.518-122.129 336.655v544.834zM212.308 388.645V1024H84.923C38.024 1024 0 986.453 0 940.134V472.51c0-46.319 38.024-83.865 84.923-83.865h127.385zM84.923 456.91c-9.386 0-16.657 7.168-16.657 15.633v467.59c0 8.431 7.27 15.6 16.657 15.6h59.119V456.91H84.923z"/></svg>