<svg class="icon" width="200" height="200" viewBox="0 0 1024 1024" xmlns="http://www.w3.org/2000/svg"><path d="M212.308 388.645V1024H84.923C38.024 1024 0 986.453 0 940.135V472.51c0-46.319 38.024-83.865 84.923-83.865h127.385zm84.958 0h43.179c80.622-102.741 103.423-198.075 80.622-299.45-34.201-152.03 191.829-91 223.846 43.212 14.882 62.293 15.7 151.62 0 256.238h294.16c46.899 0 84.923 37.546 84.923 83.9 0 10.034-1.843 20.001-5.393 29.422l-40.755 107.28-16.384 43.145-21.163 55.74c-18.944 49.868-56.524 137.01-112.81 261.46a84.89 84.89 0 01-79.53 54.408H297.3V388.645z"/></svg>