<?xml version="1.0" standalone="no"?><!DOCTYPE svg PUBLIC "-//W3C//DTD SVG 1.1//EN" "http://www.w3.org/Graphics/SVG/1.1/DTD/svg11.dtd"><svg t="1637058098146" class="icon" viewBox="0 0 1228 1024" version="1.1" xmlns="http://www.w3.org/2000/svg" p-id="2323" xmlns:xlink="http://www.w3.org/1999/xlink" width="239.84375" height="200"><defs><style type="text/css"></style></defs><path d="M798.515 795.443a16.384 16.384 0 0 0 2.048 24.986 210.125 210.125 0 0 1 64.717 126.157 68.403 68.403 0 1 0 73.114-86.016 209.92 209.92 0 0 1-116.736-65.127 16.384 16.384 0 0 0-23.143 0z" fill="#FB6500" p-id="2324"></path><path d="M1076.224 687.104a68.198 68.198 0 0 0-19.66 41.165 209.92 209.92 0 0 1-64.922 116.94 16.384 16.384 0 1 0 24.985 20.89 209.92 209.92 0 0 1 126.157-64.717 68.403 68.403 0 1 0-66.355-114.278z" fill="#0082EF" p-id="2325"></path><path d="M883.507 494.182a68.403 68.403 0 0 0 41.165 116.327 209.92 209.92 0 0 1 116.94 64.921 16.384 16.384 0 1 0 20.89-24.985 210.125 210.125 0 0 1-64.716-126.157 68.403 68.403 0 0 0-114.279-30.106z" fill="#2DBC00" p-id="2326"></path><path d="M849.92 601.088l-1.229 1.229a209.715 209.715 0 0 1-128 66.97 67.994 67.994 0 0 0-30.31 114.278A68.403 68.403 0 0 0 806.707 742.4a210.125 210.125 0 0 1 65.127-116.94 16.384 16.384 0 0 0-21.914-24.372z" fill="#FFCC00" p-id="2327"></path><path d="M436.634 10.65C313.958 24.166 202.752 76.595 122.88 158.515c-31.744 32.359-57.549 68.813-76.595 107.725a375.194 375.194 0 0 0 26.419 378.88c21.709 32.768 57.344 73.728 89.907 102.81l-14.745 115.916-1.639 4.916c-0.41 1.433-0.41 3.072-0.614 4.505l-0.41 3.687 0.41 3.686a37.274 37.274 0 0 0 56.115 28.877h0.614l2.253-1.639 35.226-17.612 105.062-52.839a542.31 542.31 0 0 0 153.6 21.095A550.912 550.912 0 0 0 686.9 825.754a68.198 68.198 0 0 1-46.49-71.476 462.643 462.643 0 0 1-193.74 19.252l-10.445-1.434a468.378 468.378 0 0 1-69.632-14.54 47.514 47.514 0 0 0-37.274 3.89l-2.867 1.434-86.425 50.79-3.687 2.253c-2.048 1.229-3.072 1.639-4.096 1.639a5.94 5.94 0 0 1-5.53-6.144l3.277-13.312 3.892-14.541 6.144-23.962 7.168-26.624a36.25 36.25 0 0 0-13.108-40.345 377.856 377.856 0 0 1-87.244-90.932 295.526 295.526 0 0 1-21.3-298.598c15.565-31.13 36.045-60.006 61.44-86.016 65.536-67.584 157.696-110.592 259.687-121.651a483.738 483.738 0 0 1 106.086 0c101.376 11.673 193.127 55.296 258.253 122.47 25.19 26.01 45.67 55.296 60.826 86.426 20.275 41.37 30.515 85.197 30.515 130.048 0 4.71-0.41 9.42-0.615 13.926a68.198 68.198 0 0 1 83.968 9.83l3.072 3.687a373.146 373.146 0 0 0-37.273-194.15 418.202 418.202 0 0 0-75.776-107.725A514.048 514.048 0 0 0 563.2 11.059a576.102 576.102 0 0 0-126.566-0.41z" fill="#0082EF" p-id="2328"></path></svg>