<?xml version="1.0" encoding="UTF-8"?>
<svg width="12px" height="10px" viewBox="0 0 12 10" version="1.1" xmlns="http://www.w3.org/2000/svg" xmlns:xlink="http://www.w3.org/1999/xlink">
    <title>编组</title>
    <defs>
        <filter color-interpolation-filters="auto" id="filter-1">
            <feColorMatrix in="SourceGraphic" type="matrix" values="0 0 0 0 0.400000 0 0 0 0 0.435294 0 0 0 0 0.513725 0 0 0 1.000000 0"></feColorMatrix>
        </filter>
    </defs>
    <g id="客户备份" stroke="none" stroke-width="1" fill="none" fill-rule="evenodd">
        <g id="编组" transform="translate(-123.000000, -148.000000)" filter="url(#filter-1)">
            <g transform="translate(123.000000, 148.000000)">
                <path d="M9.94776234,8.38490566 L10.6496491,7.68301887 C10.8330494,7.49961865 11.1303999,7.49961865 11.3138001,7.68301887 C11.4972003,7.86641909 11.4972003,8.16376959 11.3138001,8.34716981 L9.80436612,9.85660377 C9.67050179,9.99145186 9.4683839,10.0319614 9.29289259,9.9591159 C9.11740127,9.88627045 9.00338489,9.7145354 9.00435983,9.5245283 L9.00435983,0.467924528 C9.0344779,0.230344671 9.23658373,0.0522376586 9.47606423,0.0522376586 C9.71554472,0.0522376586 9.91765056,0.230344671 9.94776234,0.467924528 L9.94776234,8.38490566 Z M0.41568687,0.943396226 C0.178107012,0.913284444 0,0.71117861 0,0.471698113 C0,0.232217617 0.178107012,0.0301117825 0.41568687,0 L7.2081397,0 C7.44571956,0.0301117825 7.62382657,0.232217617 7.62382657,0.471698113 C7.62382657,0.71117861 7.44571956,0.913284444 7.2081397,0.943396226 L0.41568687,0.943396226 Z M0.41568687,5.47169811 C0.178107012,5.44158633 0,5.2394805 0,5 C0,4.7605195 0.178107012,4.55841367 0.41568687,4.52830189 L7.2081397,4.52830189 C7.44571956,4.55841367 7.62382657,4.7605195 7.62382657,5 C7.62382657,5.2394805 7.44571956,5.44158633 7.2081397,5.47169811 L0.41568687,5.47169811 Z M0.41568687,10 C0.178107012,9.96988822 0,9.76778238 0,9.52830189 C0,9.28882139 0.178107012,9.08671556 0.41568687,9.05660377 L7.2081397,9.05660377 C7.44571956,9.08671556 7.62382657,9.28882139 7.62382657,9.52830189 C7.62382657,9.76778238 7.44571956,9.96988822 7.2081397,10 L0.41568687,10 Z" id="形状" fill="#5A5A68" fill-rule="nonzero"></path>
            </g>
        </g>
    </g>
</svg>