<?xml version="1.0" encoding="UTF-8"?>
<svg width="8px" height="5px" viewBox="0 0 8 5" version="1.1" xmlns="http://www.w3.org/2000/svg" xmlns:xlink="http://www.w3.org/1999/xlink">
    <title>路径</title>
    <g id="客户备份" stroke="none" stroke-width="1" fill="none" fill-rule="evenodd">
        <g id="列表无数据" transform="translate(-231.000000, -151.000000)" fill="#666F83" fill-rule="nonzero">
            <g id="编组-2" transform="translate(193.500000, 142.500000)">
                <path d="M44.510967,9.4759434 C44.3977594,9.36273585 44.246816,9.325 44.0958726,9.325 L38.4354953,9.36273585 C38.2845519,9.36273585 38.1336085,9.4004717 38.0204009,9.51367925 C37.7939858,9.74009434 37.7939858,10.079717 38.0204009,10.3061321 L40.8505896,13.1363208 C40.8505896,13.1363208 40.8505896,13.1363208 40.8505896,13.1363208 C40.8505896,13.1363208 40.8505896,13.1363208 40.8505896,13.1363208 C40.8883255,13.1740566 40.9637972,13.2117925 41.001533,13.2495283 C41.001533,13.2495283 41.0392689,13.2872642 41.0392689,13.2872642 C41.2279481,13.3627358 41.4920991,13.325 41.6430425,13.1740566 L44.4732311,10.3061321 C44.7373821,10.0419811 44.6996462,9.70235849 44.510967,9.4759434 Z" id="路径"></path>
            </g>
        </g>
    </g>
</svg>