<?xml version="1.0" encoding="UTF-8"?>
<svg width="18px" height="18px" viewBox="0 0 18 18" version="1.1" xmlns="http://www.w3.org/2000/svg" xmlns:xlink="http://www.w3.org/1999/xlink">
    <title>搜索</title>
    <defs>
        <filter color-interpolation-filters="auto" id="filter-1">
            <feColorMatrix in="SourceGraphic" type="matrix" values="0 0 0 0 0.774041 0 0 0 0 0.790989 0 0 0 0 0.833360 0 0 0 1.000000 0"></feColorMatrix>
        </filter>
    </defs>
    <g id="客户备份" stroke="none" stroke-width="1" fill="none" fill-rule="evenodd">
        <g id="搜索" transform="translate(-30.000000, -107.000000)" filter="url(#filter-1)">
            <g transform="translate(30.000000, 107.000000)">
                <rect id="矩形" fill="#000000" fill-rule="nonzero" opacity="0" x="0" y="0" width="18" height="18"></rect>
                <path d="M14.019,13.2234375 C15.1100625,11.944875 15.729,10.323 15.729,8.6146875 C15.7291875,4.6850625 12.544125,1.49999999 8.6146875,1.49999999 C4.68525001,1.49999999 1.49999999,4.68525001 1.49999999,8.61449999 C1.49999999,12.5439375 4.68525001,15.729375 8.61449999,15.729375 C9.31857212,15.7299562 10.01883,15.6260107 10.692375,15.4209375 C10.9876633,15.3288934 11.1532384,15.0157085 11.0630238,14.7198561 C10.9728092,14.4240037 10.6606551,14.2564933 10.36425,14.344875 C9.79706054,14.5175098 9.20737969,14.6049636 8.61449999,14.604375 C5.306625,14.6041875 2.62499999,11.9225625 2.62499999,8.61449999 C2.62499999,5.306625 5.306625,2.62499999 8.61449999,2.62499999 C11.9225625,2.62499999 14.604375,5.306625 14.604375,8.61449999 C14.604375,10.183875 13.9824375,11.66775 12.8968125,12.7861875 C12.6492644,13.0411642 12.6522704,13.4476498 12.9035625,13.6989375 L15.5398125,16.3351875 C15.7599644,16.5518336 16.1136239,16.5504352 16.3320557,16.3320549 C16.5504874,16.1136747 16.5519692,15.7600154 16.335375,15.5398125 L14.019,13.2234375 Z" id="路径" fill="#000000" fill-rule="nonzero"></path>
            </g>
        </g>
    </g>
</svg>