<?xml version="1.0" standalone="no"?><!DOCTYPE svg PUBLIC "-//W3C//DTD SVG 1.1//EN" "http://www.w3.org/Graphics/SVG/1.1/DTD/svg11.dtd"><svg t="1606813260030" class="icon" viewBox="0 0 1024 1024" version="1.1" xmlns="http://www.w3.org/2000/svg" p-id="7718" xmlns:xlink="http://www.w3.org/1999/xlink" width="200" height="200"><defs><style type="text/css"></style></defs><path d="M797.96736 671.7184c-162.9952 147.9168-411.4688 147.9168-574.5152 0A384 384 0 0 0 0.01536 1024h1024a383.744 383.744 0 0 0-226.3808-353.5872l0.3328 1.28zM177.42336 521.9072V260.224H166.92736c90.624-189.696 317.6448-269.8752 507.0592-179.1232a380.4672 380.4672 0 0 1 178.8672 179.1232h-10.7776v261.6832a130.7392 130.7392 0 0 0 132.9152-128.512v-2.304a130.8928 130.8928 0 0 0-66.944-114.8416C825.87136 56.3456 581.13536-55.2192 361.48736 27.0848a425.0112 425.0112 0 0 0-248.832 249.1648 130.9696 130.9696 0 0 0-48.3072 178.6112 130.6112 130.6112 0 0 0 113.664 65.7152l-0.64 1.3312z m332.8-392.5248c-157.5168-1.4336-286.464 125.184-288.0512 282.9568 1.6128 157.696 130.56 284.2112 288.0512 282.5984 157.5168 1.6384 286.464-124.9024 288.128-282.5728v-0.0256c-1.4336-157.7216-130.2528-284.3904-287.744-282.9568h-0.3584z" p-id="7719"></path></svg>