<?xml version="1.0" standalone="no"?><!DOCTYPE svg PUBLIC "-//W3C//DTD SVG 1.1//EN" "http://www.w3.org/Graphics/SVG/1.1/DTD/svg11.dtd"><svg t="1609905525458" class="icon" viewBox="0 0 1024 1024" version="1.1" xmlns="http://www.w3.org/2000/svg" p-id="3549" xmlns:xlink="http://www.w3.org/1999/xlink" width="200" height="200"><defs><style type="text/css"></style></defs><path d="M512 1024C230.4 1024 0 793.6 0 512S230.4 0 512 0s512 230.4 512 512-230.4 512-512 512zM468.114286 343.771429v468.114285c0 7.314286 3.657143 10.971429 10.971428 10.971429h65.828572c7.314286 0 10.971429-3.657143 10.971428-10.971429V343.771429c0-7.314286-3.657143-10.971429-10.971428-10.971429h-65.828572c-7.314286 0-10.971429 7.314286-10.971428 10.971429z m0-131.657143v65.828571c0 7.314286 3.657143 10.971429 10.971428 10.971429h65.828572c7.314286 0 10.971429-3.657143 10.971428-10.971429V212.114286c0-7.314286-3.657143-10.971429-10.971428-10.971429h-65.828572c-7.314286 0-10.971429 3.657143-10.971428 10.971429z" p-id="3550"></path></svg>