<?xml version="1.0" standalone="no"?><!DOCTYPE svg PUBLIC "-//W3C//DTD SVG 1.1//EN" "http://www.w3.org/Graphics/SVG/1.1/DTD/svg11.dtd"><svg t="1609763042024" class="icon" viewBox="0 0 1078 1024" version="1.1" xmlns="http://www.w3.org/2000/svg" p-id="10074" xmlns:xlink="http://www.w3.org/1999/xlink" width="210.546875" height="200"><defs><style type="text/css"></style></defs><path d="M894.922644 723.698526c-36.352 62.302316-32.687158 135.895579 3.637895 187.392A538.516211 538.516211 0 0 1 699.17696 1024c-26.677895-56.643368-88.387368-96.336842-160.256-96.336842-71.868632 0-133.578105 39.693474-160.229053 96.336842a538.947368 538.947368 0 0 1-201.027368-114.337684c36.594526-51.361684 40.555789-124.954947 4.446316-187.365053-36.756211-63.514947-104.394105-97.091368-168.313263-89.788631A535.552 535.552 0 0 1 0.000539 511.299368c0-38.211368 3.988211-75.479579 11.641263-111.427368 64.673684 8.784842 133.766737-24.522105 171.304421-88.764632 38.103579-65.266526 32.256-142.982737-9.162105-194.667789A539.216842 539.216842 0 0 1 374.05696 0c23.578947 62.356211 88.468211 107.142737 164.837053 107.142737 76.395789 0 141.285053-44.786526 164.890947-107.142737a539.297684 539.297684 0 0 1 201.889684 117.894737c-41.606737 51.550316-47.777684 129.239579-9.916631 194.667789 37.268211 64.377263 106.226526 97.953684 170.927158 89.438316a537.923368 537.923368 0 0 1-3.125895 232.636632c-63.892211-7.545263-131.637895 25.734737-168.663579 89.061052zM538.947907 727.578947a215.578947 215.578947 0 1 0 0-431.157894 215.578947 215.578947 0 0 0 0 431.157894z" p-id="10075"></path></svg>