<svg class="icon" width="200" height="173.41" viewBox="0 0 1181 1024" xmlns="http://www.w3.org/2000/svg"><path d="M1008.443 192.906c-104.212 27.57-208.069 96.374-298.535 194.048-103.976 112.325-173.686 248.044-173.686 328.743h-71.484c0-215.749 274.905-534.567 550.597-596.913l-71.561-53.72 42.89-57.187 175.97 131.978-172.11 172.11-50.57-50.53 68.528-68.53zM647.956 72.23v71.483H71.483v786.511h857.994V555.481h71.483v379.825c0 36.628-26.388 66.402-58.88 66.402H58.88c-32.532 0-58.88-29.735-58.88-66.402V138.634C0 101.967 26.388 72.23 58.88 72.23h589.076z"/></svg>