<?xml version="1.0" encoding="UTF-8"?>
<svg width="16px" height="16px" viewBox="0 0 16 16" version="1.1" xmlns="http://www.w3.org/2000/svg" xmlns:xlink="http://www.w3.org/1999/xlink">
    <title>想看</title>
    <defs>
        <filter color-interpolation-filters="auto" id="filter-1">
            <feColorMatrix in="SourceGraphic" type="matrix" values="0 0 0 0 0.772549 0 0 0 0 0.792157 0 0 0 0 0.835294 0 0 0 1.000000 0"></feColorMatrix>
        </filter>
    </defs>
    <g id="客户备份" stroke="none" stroke-width="1" fill="none" fill-rule="evenodd">
        <g id="选择业务经理" transform="translate(-339.000000, -379.000000)">
            <g id="想看" transform="translate(0.000000, 349.500000)" filter="url(#filter-1)">
                <g transform="translate(339.000000, 29.500000)">
                    <rect id="矩形" fill="#000000" fill-rule="nonzero" opacity="0" x="0" y="0" width="16" height="16"></rect>
                    <path d="M8,2.89833333 C8.87166667,2.159 9.50333333,1.83333333 10.4341667,1.83333333 C12.4065,1.83333333 13.7578333,3.03233333 14.3145,5.00283333 C14.3861696,5.26737704 14.2315092,5.54031005 13.967738,5.61477264 C13.7039669,5.68923524 13.4294139,5.53746915 13.3521667,5.2745 C12.9095,3.708 11.9238333,2.83333333 10.4341667,2.83333333 C9.7855,2.83333333 9.33483334,3.07166666 8.60483333,3.69666667 C8.571,3.72566667 8.37983333,3.89066667 8.32433333,3.93783333 C8.1374463,4.09711823 7.8625537,4.09711823 7.67566667,3.93783333 C7.62016667,3.89066666 7.429,3.72566666 7.39516667,3.69666667 C6.66516667,3.07166667 6.2145,2.83333333 5.56583333,2.83333333 C3.5955,2.83333333 2.33333333,4.412 2.33333333,6.689 C2.33333333,8.42283333 4.10316666,10.5778333 7.70166667,13.0765 C7.87683333,13.1975341 8.1088808,13.1965362 8.283,13.074 C9.02433333,12.55 9.51733333,12.1923333 9.75616667,12.0056667 C9.89692931,11.8956586 10.0856879,11.869103 10.251339,11.936003 C10.4169901,12.002903 10.5343673,12.153095 10.5592557,12.330003 C10.5841441,12.5069111 10.5127626,12.6836586 10.372,12.7936667 C10.1163333,12.9933333 9.6145,13.3575 8.86033333,13.8906667 C8.34267658,14.2560529 7.65183432,14.2589161 7.13116667,13.8978333 C3.2855,11.2275 1.33333333,8.8505 1.33333333,6.689 C1.33333333,3.90266667 2.98783333,1.83333333 5.56583333,1.83333333 C6.49666667,1.83333333 7.12833333,2.159 8,2.89833333 Z M12.8333333,8.66666667 L14.1666667,8.66666667 C14.442809,8.66666667 14.6666667,8.8905243 14.6666667,9.16666667 C14.6666667,9.44280905 14.442809,9.66666667 14.1666667,9.66666667 L12.8333333,9.66666667 L12.8333333,11 C12.8333333,11.2761424 12.6094757,11.5 12.3333333,11.5 C12.057191,11.5 11.8333333,11.2761424 11.8333333,11 L11.8333333,9.66666667 L10.5,9.66666667 C10.2238576,9.66666667 10,9.44280905 10,9.16666667 C10,8.8905243 10.2238576,8.66666667 10.5,8.66666667 L11.8333333,8.66666667 L11.8333333,7.33333333 C11.8333333,7.05719095 12.057191,6.83333333 12.3333333,6.83333333 C12.6094757,6.83333333 12.8333333,7.05719095 12.8333333,7.33333333 L12.8333333,8.66666667 Z" id="形状" fill="#000000" fill-rule="nonzero"></path>
                </g>
            </g>
        </g>
    </g>
</svg>