<svg class="icon" width="200" height="200" viewBox="0 0 1024 1024" xmlns="http://www.w3.org/2000/svg"><path d="M512 578.783c-159.833 0-289.391-129.559-289.391-289.392S352.167 0 512 0s289.391 129.558 289.391 289.391S671.833 578.783 512 578.783zm0-44.522c135.235 0 244.87-109.635 244.87-244.87S647.235 44.521 512 44.521s-244.87 109.636-244.87 244.87S376.765 534.261 512 534.261zm467.478 423.624v12.466c0-2.894-.044-5.788-.133-8.681.089-1.247.133-2.516.133-3.785zM890.435 1024h-756.87c-47.46 0-86.26-27.581-88.91-62.33C50.888 774.01 257.736 623.304 512 623.304S973.112 774.01 979.345 961.67c-2.672 34.749-41.45 62.33-88.91 62.33zM512 667.826c-230.422 0-414.854 132.608-422.69 291.885 2.293 8.57 19.501 19.767 44.255 19.767h756.87c24.754 0 41.962-11.197 44.254-19.767C926.854 800.434 742.422 667.826 512 667.826zM44.522 970.351v-12.466c0 1.27.044 2.538.133 3.785a282.275 282.275 0 00-.133 8.681z"/></svg>