<?xml version="1.0" standalone="no"?><!DOCTYPE svg PUBLIC "-//W3C//DTD SVG 1.1//EN" "http://www.w3.org/Graphics/SVG/1.1/DTD/svg11.dtd"><svg t="1606807091168" class="icon" viewBox="0 0 1024 1024" version="1.1" xmlns="http://www.w3.org/2000/svg" p-id="1119" xmlns:xlink="http://www.w3.org/1999/xlink" width="200" height="200"><defs><style type="text/css"></style></defs><path d="M455.630461 69.770378c-131.26573 2.795243-234.800432 109.76173-234.800433 243.878054 0 131.846919 105.333622 239.505297 234.800433 243.933406 129.522162-4.428108 234.828108-112.086486 234.828108-243.933406 0-134.116324-103.534703-241.055135-234.828108-243.878054z m0 557.554163h-8.745514c-164.614919 3.514811-305.262703 121.966703-336.093405 285.806702-3.431784 17.380324-17.158919 27.84173-34.317838 27.84173h-6.918919c-20.507676-3.487135-30.830703-24.354595-27.398919-41.79027A419.978378 419.978378 0 0 1 299.456623 585.478919c-96.034595-52.279351-157.779027-153.323243-157.779027-271.858162C141.64992 139.402378 278.86592 0 450.372082 0c1.771243 0 3.514811 0 5.258379 0.055351l5.258378-0.055351C632.450352 0 769.666352 139.402378 769.666352 313.648432c0 118.507243-61.744432 219.578811-157.779027 271.858163a419.756973 419.756973 0 0 1 94.40173 52.66681 222.429405 222.429405 0 0 0-57.011892 46.910271 347.938595 347.938595 0 0 0-184.873513-57.759135h-8.745514zM927.694461 670.028108c3.431784-3.431784 3.431784-6.835892 3.431783-10.267676v-10.295351c0-3.431784-3.431784-6.863568-3.431783-10.267676a103.922162 103.922162 0 0 0-17.131244-23.99481c-6.863568-6.863568-13.699459-13.699459-20.563027-17.158919-3.431784 0-6.863568-3.404108-10.295351-3.404108-3.404108-3.431784-10.24-3.431784-13.69946-3.431784-6.835892 0-10.267676 3.431784-13.699459 3.431784s-10.295351 3.431784-13.699459 6.863567c-3.431784 3.404108-10.295351 6.835892-13.727136 10.267676a47.242378 47.242378 0 0 0-13.699459 10.295351l85.683892 82.224433 13.699459-13.69946 10.267676-10.295351c3.431784-3.431784 6.863568-6.835892 6.863568-10.267676z m-164.476541 157.640649l106.219243-92.519784-85.656216-82.252108-99.383351 92.519784-37.694271 34.262486-34.262486 30.858379-23.994811 23.99481-13.727135 13.671784-10.24 10.295351c-3.459459 3.431784-3.459459 6.863568-6.863568 10.267676-3.459459 3.431784-3.459459 6.863568-6.863567 13.727135-3.431784 6.835892-3.431784 17.131243-6.863568 23.994811-3.431784 10.24-3.431784 17.103568-6.835892 23.967135 0 6.863568-3.431784 13.699459-3.431783 17.158919 0 10.24 0 13.699459 3.431783 17.103568 0 3.431784 3.404108 3.431784 10.24 3.431783h3.45946c3.404108 0 10.267676 0 17.131243-3.431783 6.835892-3.404108 13.699459-3.404108 23.994811-6.835892 6.835892-3.431784 17.131243-3.431784 23.994811-10.295352 6.835892-3.431784 13.699459-3.431784 17.131243-6.835891 6.835892-3.431784 10.267676-3.431784 13.699459-6.863568s6.835892-3.431784 10.267676-6.863568l10.295351-10.267675 23.967136-23.994811c10.295351-10.267676 20.563027-20.563027 34.262486-30.830703l37.721946-34.262486z m209.034378-188.471352c3.404108 6.835892 3.404108 13.699459 10.267676 17.131244 0 10.267676 0 20.535351-3.431784 27.398919s-10.267676 17.158919-17.131243 23.99481l-17.131243 17.131244c-3.431784 3.431784-6.835892 3.431784-10.267676 6.863567l-30.858378 30.830703-99.355676 92.519784-37.721946 34.262486c-13.699459 13.699459-23.967135 23.994811-34.262486 30.858379l-23.967136 23.967135-13.727135 13.727135c-3.431784 3.431784-10.267676 6.835892-13.699459 10.267675-6.863568 6.863568-13.699459 10.267676-20.563027 13.727136-6.863568 3.404108-13.699459 6.835892-23.967135 10.24-10.295351 3.459459-17.158919 6.863568-27.426595 10.295351-10.295351 3.431784-17.158919 3.431784-27.426594 6.863568-10.267676 0-17.131243 3.431784-23.967136 3.431783h-13.727135c-27.398919 0-41.126054-13.727135-47.961946-20.563027-10.267676-13.727135-13.699459-27.398919-10.267675-47.989621 3.404108-6.835892 3.404108-13.699459 6.835892-23.967135 3.431784-6.863568 3.431784-17.158919 6.835891-23.994811 3.431784-10.267676 3.431784-17.131243 6.863568-23.994811 3.431784-10.267676 3.431784-17.131243 6.863568-20.563027 3.431784-6.835892 6.863568-13.699459 10.267675-17.103568 6.863568-3.459459 10.295351-10.295351 17.158919-17.158919l3.404108-6.835891c10.267676-6.863568 17.158919-13.727135 27.398919-23.994811l34.290162-30.858379 37.694271-34.262486 99.355675-92.519784 3.431784-3.431784 27.398919-23.967135 6.891243-6.863567c3.431784-3.431784 10.267676-6.835892 13.69946-10.267676 3.431784-6.863568 10.267676-10.295351 13.699459-13.727135 6.863568-6.835892 17.158919-10.267676 27.398919-13.69946 6.863568-3.431784 17.158919-3.431784 24.022487-3.431783h3.431783c6.835892 0 17.103568 0 23.967135 3.431783s10.295351 3.431784 17.158919 6.863568c10.24 3.404108 23.967135 13.699459 34.262487 23.994811 13.699459 10.24 20.535351 20.535351 27.398919 34.262486a26.181189 26.181189 0 0 1 6.863567 17.131243z" p-id="1120"></path></svg>