<?xml version="1.0" standalone="no"?><!DOCTYPE svg PUBLIC "-//W3C//DTD SVG 1.1//EN" "http://www.w3.org/Graphics/SVG/1.1/DTD/svg11.dtd"><svg t="1606807020382" class="icon" viewBox="0 0 1024 1024" version="1.1" xmlns="http://www.w3.org/2000/svg" p-id="869" xmlns:xlink="http://www.w3.org/1999/xlink" width="200" height="200"><defs><style type="text/css"></style></defs><path d="M945.2032 675.84l-76.047059 133.12c-7.589647 12.769882-22.799059 15.36-35.478588 10.24l-101.376-58.88c-32.948706 30.72-73.487059 56.32-119.115294 69.089882v117.790118c0 15.36-10.149647 25.6-25.359059 25.6h-152.033882c-15.209412 0-25.359059-10.24-25.359059-25.6v-117.76c-45.628235-15.36-86.166588-38.430118-119.115294-69.12L189.942965 819.2c-12.649412 7.649882-27.888941 2.529882-35.478589-10.24L78.417318 675.84c-7.589647-12.830118-2.529882-28.190118 10.149647-35.84l101.376-58.88A321.174588 321.174588 0 0 1 182.353318 512c0-23.04 2.529882-46.08 7.589647-69.150118L88.566965 384c-12.649412-7.710118-15.209412-23.04-10.149647-35.84l76.047058-133.12c7.589647-12.830118 22.799059-15.36 35.478589-10.24l101.376 58.849882c32.948706-30.689882 73.487059-56.289882 119.115294-69.089882V76.8c0-15.36 10.149647-25.6 25.359059-25.6h152.033882c15.209412 0 25.359059 10.24 25.359059 25.6v117.76c45.628235 15.36 86.166588 38.4 119.115294 69.089882L833.677553 204.8c12.649412-7.710118 27.888941-2.590118 35.478588 10.24l76.047059 133.12c7.589647 12.8 2.529882 28.129882-10.149647 35.84l-101.376 58.849882c5.059765 23.04 7.589647 46.110118 7.589647 69.150118 0 23.009882-2.529882 46.08-7.589647 69.12l101.376 58.88c12.649412 7.649882 17.769412 23.009882 10.149647 35.84m38.008471-66.56l-93.786353-53.76c2.529882-15.36 2.529882-28.16 2.529882-43.52s0-28.190118-2.529882-43.550118l93.786353-53.76c25.328941-15.329882 32.948706-46.08 17.739294-69.089882L899.574965 168.96c-15.209412-25.6-45.628235-33.310118-68.427294-17.950118L737.361318 204.8c-22.799059-17.950118-48.158118-30.72-73.487059-43.550118V51.2c0-28.190118-22.799059-51.2-50.688-51.2h-202.752c-27.888941 0-50.688 23.009882-50.688 51.2v110.049882c-25.328941 12.8-50.688 25.6-73.487059 43.550118L192.472847 148.48a48.880941 48.880941 0 0 0-68.427294 17.92L22.699671 343.009882c-15.209412 25.6-5.059765 56.350118 17.769411 69.150118l93.756236 53.729882c-2.529882 15.36-2.529882 28.16-2.529883 43.52 0 15.390118 0 28.190118 2.529883 43.52L40.408847 606.72c-25.328941 15.36-32.948706 46.08-17.739294 69.089882l101.376 176.64c15.209412 25.6 45.628235 33.28 68.427294 17.950118l93.786353-53.790118c22.799059 17.92 48.158118 30.72 73.487059 43.52V972.8c0 28.129882 22.799059 51.2 50.688 51.2h202.752c27.888941 0 50.688-23.070118 50.688-51.2v-110.08c25.328941-12.8 50.688-25.6 73.487059-43.52l93.786353 53.729882c25.328941 15.390118 55.747765 5.12 68.427294-17.92l101.376-176.609882c15.209412-23.070118 7.589647-53.790118-17.769412-69.150118M511.810259 665.6c-83.636706 0-152.064-69.150118-152.064-153.6 0-84.510118 68.427294-153.6 152.064-153.6 83.636706 0 152.064 69.089882 152.064 153.6 0 84.449882-68.427294 153.6-152.064 153.6m0-358.4c-111.525647 0-202.752 92.16-202.752 204.8 0 112.64 91.256471 204.8 202.752 204.8 111.525647 0 202.752-92.16 202.752-204.8 0-112.64-91.256471-204.8-202.752-204.8" p-id="870"></path></svg>