<svg class="icon" width="200" height="200" viewBox="0 0 1024 1024" xmlns="http://www.w3.org/2000/svg"><path d="M511.866 578.783c-159.833 0-289.39-129.559-289.39-289.392S352.032 0 511.865 0s289.392 129.558 289.392 289.391-129.559 289.392-289.392 289.392zm467.479 379.102v12.466c0-2.894-.067-5.788-.156-8.681.089-1.247.156-2.516.156-3.785zM890.3 1024H133.43c-47.504 0-86.26-27.581-88.91-62.33 6.234-187.66 213.06-338.366 467.345-338.366 254.264 0 461.112 150.706 467.323 338.366-2.65 34.749-41.428 62.33-88.888 62.33z"/></svg>