<?xml version="1.0" standalone="no"?><!DOCTYPE svg PUBLIC "-//W3C//DTD SVG 1.1//EN" "http://www.w3.org/Graphics/SVG/1.1/DTD/svg11.dtd"><svg t="1606807076801" class="icon" viewBox="0 0 1024 1024" version="1.1" xmlns="http://www.w3.org/2000/svg" p-id="994" xmlns:xlink="http://www.w3.org/1999/xlink" width="200" height="200"><defs><style type="text/css"></style></defs><path d="M812.854167 516.81684V90.315752a30.105251 30.105251 0 0 0-30.10525-30.10525H120.433399a30.105251 30.105251 0 0 0-30.10525 30.10525v782.736521a30.105251 30.105251 0 0 0 30.10525 30.10525h421.172459c-19.929676-37.721879-29.804198-82.066914-29.804198-133.396366 0-72.433233 22.368201-132.463103 67.736814-180.72182C626.803718 537.318516 686.803482 511.789263 760.290399 511.789263a262.818839 262.818839 0 0 1 52.533663 5.027577z m60.210502 22.488622a187.25466 187.25466 0 0 1 45.669665 37.330511c35.795143 39.317458 53.677662 88.268595 53.677662 147.606045 0 49.673664-14.691362 93.807961-42.809666 133.787734-28.118304 37.932616-58.76545 57.260187-92.001647 57.260187-26.823778 0-41.515141-15.173046-44.074087-45.519139-21.705886 31.008408-48.55977 46.903981-80.50144 46.903981-26.793673 0-48.529664-10.356206-65.147763-29.653672-16.618098-19.327571-24.927148-44.164403-24.927148-73.818075 0-51.0284 14.059152-95.885224 43.441877-133.125419 28.118304-37.240195 60.692186-55.182925 99.046275-55.182925 30.647145 0 51.088611 17.250309 61.324396 51.750927l9.57347-38.625037h41.545246l-45.368613 180.029399c-5.117893 19.989887-7.676839 33.778091-7.676839 42.057036 0 11.048627 5.719998 17.250309 17.882519 17.250308 19.809255 0 39.61851-13.788205 59.427765-40.702299 22.970306-31.730934 34.470512-68.97113 34.470512-111.720585 0-48.981243-15.323573-89.683542-45.970718-122.106897-33.236197-35.162933-77.9726-52.413242-132.884577-52.413242-58.76545 0-107.325219 20.682307-145.649203 62.769448-37.691774 41.39472-56.236608 94.500382-56.236608 157.962251 0 69.66355 18.544834 123.431528 56.868818 161.364144 35.765038 35.885459 84.957018 54.490504 147.57594 54.490504 44.706297 0 84.294702-8.941259 117.530899-26.191568a190.566237 190.566237 0 0 0 70.927971-64.846711H993.485672a226.542012 226.542012 0 0 1-96.457224 95.192803C856.145518 1012.529899 810.7468 1023.578526 760.320505 1023.578526c-71.981655 0-129.332157-20.080202-172.563298-60.210501H90.328149a60.210502 60.210502 0 0 1-60.210502-60.210502V60.210502a60.210502 60.210502 0 0 1 60.210502-60.210502h722.526018a60.210502 60.210502 0 0 1 60.210502 60.210502v479.09496z m-102.56859 118.705004c-25.739989 0-48.469454 14.570941-67.616393 45.157876-20.35115 30.61704-30.526724 67.074499-30.526724 110.064797 0 19.658729 3.61263 34.982301 11.379785 46.633034s19.146939 17.461045 34.109249 17.461045 29.924619-7.255365 44.254719-21.826307a110.877639 110.877639 0 0 0 28.750514-51.0284l13.155995-59.728817c3.61263-18.966308 5.990945-30.61704 5.990944-34.982302 0-13.125889-3.61263-24.776621-10.175574-34.259775-7.79726-11.650732-17.37073-17.461045-29.322515-17.461045zM240.854403 180.631505h451.578761a30.105251 30.105251 0 1 1 0 60.210501H240.854403a30.105251 30.105251 0 1 1 0-60.210501z m0 180.631504h451.578761a30.105251 30.105251 0 1 1 0 60.210502H240.854403a30.105251 30.105251 0 1 1 0-60.210502z m0 150.526254h240.842006a30.105251 30.105251 0 1 1 0 60.210502H240.854403a30.105251 30.105251 0 1 1 0-60.210502z m0 150.526254h180.631504a30.105251 30.105251 0 1 1 0 60.210502H240.854403a30.105251 30.105251 0 1 1 0-60.210502z" p-id="995"></path></svg>