<?xml version="1.0" standalone="no"?><!DOCTYPE svg PUBLIC "-//W3C//DTD SVG 1.1//EN" "http://www.w3.org/Graphics/SVG/1.1/DTD/svg11.dtd"><svg t="1606807404904" class="icon" viewBox="0 0 1024 1024" version="1.1" xmlns="http://www.w3.org/2000/svg" p-id="1057" xmlns:xlink="http://www.w3.org/1999/xlink" width="200" height="200"><defs><style type="text/css"></style></defs><path d="M421.044706 572.626824H214.738824c-21.082353 0-37.888 16.865882-37.888 33.701647 0 21.022118 16.835765 33.671529 37.888 33.671529h206.305882c21.082353 0 37.918118-16.865882 37.918118-33.671529 0-16.865882-16.865882-33.701647-37.918118-33.701647z m-206.305882-197.872942c-21.082353 0-37.888 16.805647-37.888 33.67153 0 21.052235 16.835765 33.671529 37.888 33.671529h362.10447c21.052235 0 37.888-16.865882 37.888-33.671529 0-21.082353-16.835765-33.701647-37.888-33.701647H214.738824z m564.193882-147.395764c0-21.022118-16.835765-33.671529-37.888-33.67153H214.738824c-21.082353 0-37.888 16.865882-37.888 33.67153 0 21.082353 16.835765 33.701647 37.888 33.701647h526.305882c21.082353 0 37.888-12.649412 37.888-33.701647zM307.350588 938.947765H138.962824a66.499765 66.499765 0 0 1-67.373177-67.373177V138.932706c0-37.888 29.455059-67.373176 67.373177-67.373177h728.395294c37.918118 0 67.373176 29.515294 67.373176 67.373177v185.283765c0 21.052235 16.865882 33.671529 33.701647 33.671529 21.052235 0 33.671529-16.835765 33.67153-33.671529V138.932706C1010.537412 63.156706 947.380706 0 867.358118 0H138.962824C63.156706 0 0 63.156706 0 138.932706V871.604706c0 75.776 63.156706 138.962824 138.962824 138.962823h168.387764c21.082353 0 33.731765-16.865882 33.731765-33.701647 0-21.082353-12.649412-37.888-33.731765-37.888z m644.216471-362.104471c0 4.216471-4.216471 8.432941-8.432941 12.649412l-12.589177 12.619294-16.865882 16.865882-105.261177-101.074823c4.216471-4.216471 8.432941-8.432941 16.865883-12.649412 4.186353-4.216471 12.589176-8.432941 16.835764-12.619294 4.216471-4.216471 12.649412-8.432941 16.835765-8.432941 4.216471 0 8.432941-4.216471 16.835765-4.216471 4.216471 0 12.649412 0 16.865882 4.216471 4.216471 0 8.402824 4.216471 12.619294 4.21647 8.432941 4.216471 16.835765 12.649412 25.268706 21.082353 8.432941 8.402824 16.835765 21.022118 21.022118 29.455059 0 4.216471 4.216471 8.432941 4.21647 12.649412v12.619294c0 4.216471 0 8.432941-4.21647 12.619294z m-202.089412 193.686588l-46.320941 42.104471c-16.865882 12.649412-29.485176 25.238588-42.104471 37.888l-29.485176 29.455059-12.619294 12.649412c-4.216471 4.216471-8.432941 4.216471-12.649412 8.432941-4.186353 4.216471-8.402824 4.216471-16.835765 8.432941-4.216471 4.186353-12.619294 4.186353-21.022117 8.402823-8.432941 8.432941-21.082353 8.432941-29.515295 12.649412-12.619294 4.216471-21.052235 4.216471-29.455058 8.402824-8.432941 4.216471-16.865882 4.216471-21.052236 4.21647h-4.21647c-8.432941 0-12.649412 0-12.649412-4.21647-4.186353-4.216471-4.186353-8.432941-4.186353-21.082353 0-4.216471 4.216471-12.619294 4.216471-21.022118 4.216471-8.432941 4.216471-16.865882 8.432941-29.485176 4.216471-8.432941 4.216471-21.052235 8.432941-29.485177 4.186353-8.432941 4.186353-12.619294 8.402824-16.835765 4.216471-4.216471 4.216471-8.432941 8.432941-12.619294l12.589176-12.649411 16.865883-16.805647 29.485176-29.515295 42.104471-37.857882 46.290823-42.134588 122.127059-113.664 105.261176 101.044706-130.529882 113.694117z m256.843294-231.604706c0-8.402824-4.216471-16.835765-8.432941-21.022117-8.432941-16.865882-16.835765-29.485176-33.671529-42.104471-12.649412-12.649412-29.485176-25.298824-42.104471-29.485176-8.432941-4.216471-12.649412-4.216471-21.082353-8.432941-8.402824-4.216471-21.022118-4.216471-29.455059-4.216471h-4.21647c-8.432941 0-21.052235 0-29.485177 4.216471-12.619294 4.216471-25.238588 8.432941-33.671529 16.865882-4.216471 4.216471-12.649412 8.432941-16.865883 16.835765-4.186353 4.216471-12.589176 8.432941-16.805647 12.649411l-8.432941 8.432942-33.671529 29.424941-4.216471 4.21647-122.096941 113.694118-46.320941 42.104471-42.104471 37.888c-12.649412 12.649412-21.082353 21.082353-33.701647 29.485176l-4.21647 8.432941c-8.402824 8.402824-12.619294 16.835765-21.022118 21.052236-4.216471 4.216471-8.432941 12.619294-12.649412 21.022117-4.216471 4.216471-4.216471 12.649412-8.432941 25.298824-4.216471 8.402824-4.216471 16.805647-8.432941 29.455059-4.186353 8.432941-4.186353 21.052235-8.372706 29.485176-4.216471 12.619294-4.216471 21.022118-8.432941 29.455059-4.216471 25.268706 0 42.104471 12.649412 58.940235 8.402824 8.432941 25.238588 25.268706 58.940235 25.268706h16.835765c8.432941 0 16.835765-4.216471 29.455058-4.216471 12.649412-4.216471 21.082353-4.216471 33.701647-8.432941 12.649412-4.216471 21.052235-8.402824 33.67153-12.619294 12.649412-4.216471 21.082353-8.432941 29.485176-12.619294 8.432941-4.216471 16.835765-8.432941 25.268706-16.865882 4.216471-4.216471 12.619294-8.402824 16.835765-12.619294l16.835765-16.865883 29.455058-29.424941c12.649412-8.432941 25.298824-21.082353 42.104471-37.918118l46.320941-42.10447 122.127059-113.664 37.888-37.918118c4.216471-4.216471 8.432941-4.216471 12.649412-8.432941l21.022117-21.022118c8.432941-8.432941 16.865882-21.052235 21.082353-29.515294 4.216471-8.402824 4.216471-21.022118 4.216471-33.641412-8.432941-4.216471-8.432941-12.649412-12.649412-21.082353z" p-id="1058"></path></svg>