<?xml version="1.0" standalone="no"?><!DOCTYPE svg PUBLIC "-//W3C//DTD SVG 1.1//EN" "http://www.w3.org/Graphics/SVG/1.1/DTD/svg11.dtd"><svg t="1606813186723" class="icon" viewBox="0 0 1024 1024" version="1.1" xmlns="http://www.w3.org/2000/svg" p-id="2377" xmlns:xlink="http://www.w3.org/1999/xlink" width="200" height="200"><defs><style type="text/css"></style></defs><path d="M746.973728 426.470758l-0.511846-0.127962a104.928469 104.928469 0 0 0-115.779609-116.086716 45.554311 45.554311 0 0 1-40.691772-12.540232 45.349572 45.349572 0 0 1 0-64.287881 45.298388 45.298388 0 0 1 23.109856-12.386678l-0.051185-0.204738c58.862312-8.010393 122.919863 9.776262 168.141474 54.767542a195.47406 195.47406 0 0 1 55.995973 163.023012 45.221611 45.221611 0 0 1-13.205632 28.305094 45.682272 45.682272 0 0 1-64.467027 0 45.375165 45.375165 0 0 1-12.540232-40.435849z m164.507365 51.107842h-0.025592c21.599909-89.393937 3.019893-199.287314-66.949482-269.077543a274.093635 274.093635 0 0 0-273.581788-68.126727 45.554311 45.554311 0 0 1-5.553531 1.765869v-0.051185a45.631088 45.631088 0 0 1-42.918303-12.028385 45.349572 45.349572 0 0 1 18.426462-75.497313v-0.10237c125.99094-39.463341 269.179911-11.004693 369.22025 88.549391 97.07163 96.943668 118.773908 242.077656 87.269775 365.560549a364.588041 364.588041 0 0 0-0.307108-0.127961 45.682272 45.682272 0 0 1-75.957974 19.245417 45.375165 45.375165 0 0 1-9.622709-50.109742z m81.204398 399.291213a218.251216 218.251216 0 0 1-177.508258 144.72451 40.384664 40.384664 0 0 1-11.004693 1.868239c-3.147854 0-6.372485 0.230331-9.597116 0.23033C362.833162 1023.692892 12.730368 675.739852 12.730368 245.046875c0-5.348793 0.076777-10.671993 0.204738-16.020785A253.287087 253.287087 0 0 1 12.730368 219.710489C12.730368 128.576275 68.547195 50.545323 147.857762 17.403282A217.483446 217.483446 0 0 1 233.591999 0.000512c120.437409 0 218.148846 97.455515 218.148846 217.611408v1.9962c0 101.806207-69.611082 187.258929-163.89315 211.827546 44.121142 144.033518 149.407903 260.96478 285.123921 321.439407a219.684385 219.684385 0 0 1 213.055976-165.940535c121.205178 0 219.479646 98.018545 219.479647 218.942208 0 20.652994-2.866339 40.563811-8.240724 59.450935-0.9981 4.09477-2.559231 8.010393-4.555431 11.542132z" p-id="2378"></path></svg>