<?xml version="1.0" standalone="no"?><!DOCTYPE svg PUBLIC "-//W3C//DTD SVG 1.1//EN" "http://www.w3.org/Graphics/SVG/1.1/DTD/svg11.dtd"><svg t="1609729198083" class="icon" viewBox="0 0 1024 1024" version="1.1" xmlns="http://www.w3.org/2000/svg" p-id="3505" width="32" height="32" xmlns:xlink="http://www.w3.org/1999/xlink"><defs><style type="text/css"></style></defs><path d="M524.8 0C794.770286 0 1024 229.229714 1024 524.8 1024 794.770286 794.770286 1024 524.8 1024 229.229714 1024 0 794.770286 0 524.8 0 229.229714 229.229714 0 524.8 0zM512 745.728l-3.913143 0.219429a33.28 33.28 0 0 0-29.476571 33.170285 33.28 33.28 0 0 0 33.389714 33.389715l3.913143-0.219429a33.28 33.28 0 0 0 29.476571-33.170286l-0.219428-3.913143a33.28 33.28 0 0 0-33.170286-29.476571z m1.060571-534.235429h-2.121142a42.422857 42.422857 0 0 0-42.349715 43.958858l12.141715 386.816c0.548571 17.188571 13.056 31.853714 29.330285 35.693714l2.048 0.365714 2.084572-0.365714c14.848-3.474286 26.697143-15.981714 28.928-31.414857l0.365714-4.278857 11.958857-386.816a42.166857 42.166857 0 0 0-42.422857-43.958858z" p-id="3506" fill="#27B2FE"></path></svg>