<?xml version="1.0" standalone="no"?><!DOCTYPE svg PUBLIC "-//W3C//DTD SVG 1.1//EN" "http://www.w3.org/Graphics/SVG/1.1/DTD/svg11.dtd"><svg t="1603509230754" class="icon" viewBox="0 0 1024 1024" version="1.1" xmlns="http://www.w3.org/2000/svg" p-id="3648" xmlns:xlink="http://www.w3.org/1999/xlink" width="100" height="100"><defs><style type="text/css"></style></defs><path d="M558.395077 687.222154c-12.012308-11.854769-27.175385-17.762462-45.449846-17.762462-18.038154 0-33.201231 5.828923-45.607385 17.526154-12.445538 11.736615-18.550154 26.742154-18.550154 45.016616 0 17.526154 6.025846 32.413538 18.313846 44.622769 12.209231 12.209231 28.790154 18.274462 49.506462 18.274461 16.423385 0 30.523077-6.104615 42.220308-18.274461 11.736615-12.169846 17.604923-27.057231 17.604923-44.622769 0.039385-18.038154-5.947077-32.964923-18.038154-44.819693v0.039385zM454.892308 219.529846l12.8 392.113231h88.536615l13.508923-392.113231h-114.845538zM512 1024C229.297231 1024 0 794.742154 0 512S229.297231 0 512 0c282.781538 0 512 229.257846 512 512s-229.218462 512-512 512z" p-id="3649"></path></svg>