<?xml version="1.0" standalone="no"?><!DOCTYPE svg PUBLIC "-//W3C//DTD SVG 1.1//EN" "http://www.w3.org/Graphics/SVG/1.1/DTD/svg11.dtd"><svg t="1637287780678" class="icon" viewBox="0 0 1024 1024" version="1.1" xmlns="http://www.w3.org/2000/svg" p-id="11277" xmlns:xlink="http://www.w3.org/1999/xlink" width="200" height="200"><defs><style type="text/css"></style></defs><path d="M967.111111 0a56.888889 56.888889 0 0 1 56.888889 56.888889v910.222222a56.888889 56.888889 0 0 1-56.888889 56.888889H56.888889a56.888889 56.888889 0 0 1-56.888889-56.888889V56.888889a56.888889 56.888889 0 0 1 56.888889-56.888889h910.222222zM614.4 230.4H307.456a25.6 25.6 0 0 0-25.856 25.656889v519.452444c0 9.984 7.992889 18.090667 18.062222 18.090667h424.675556c9.955556 0 18.062222-8.021333 18.062222-17.834667V358.4h-109.824a17.948444 17.948444 0 0 1-18.176-18.176V230.4z m51.2 384v25.6H358.4v-25.6h307.2z m0-76.8v25.6H358.4v-25.6h307.2z m0-76.8v25.6H358.4v-25.6h307.2z m-25.6-230.4v93.667556c0 4.835556 3.896889 8.732444 8.732444 8.732444H742.4l-102.4-102.4z" fill="#548DE4" p-id="11278"></path></svg>