<?xml version="1.0" standalone="no"?><!DOCTYPE svg PUBLIC "-//W3C//DTD SVG 1.1//EN" "http://www.w3.org/Graphics/SVG/1.1/DTD/svg11.dtd"><svg t="1637287789336" class="icon" viewBox="0 0 1024 1024" version="1.1" xmlns="http://www.w3.org/2000/svg" p-id="11531" xmlns:xlink="http://www.w3.org/1999/xlink" width="200" height="200"><defs><style type="text/css"></style></defs><path d="M967.111111 0a56.888889 56.888889 0 0 1 56.888889 56.888889v910.222222a56.888889 56.888889 0 0 1-56.888889 56.888889H56.888889a56.888889 56.888889 0 0 1-56.888889-56.888889V56.888889a56.888889 56.888889 0 0 1 56.888889-56.888889h910.222222z m-199.111111 742.4H281.6v25.6H768v-25.6z m0-332.8h-102.4v307.2H768V409.6z m-128-128h-102.4v435.2h102.4V281.6z m-256 358.4H281.6v76.8h102.4v-76.8z m128-153.6h-102.4v230.4H512v-230.4z" fill="#54BC59" p-id="11532"></path></svg>