<?xml version="1.0" standalone="no"?><!DOCTYPE svg PUBLIC "-//W3C//DTD SVG 1.1//EN" "http://www.w3.org/Graphics/SVG/1.1/DTD/svg11.dtd"><svg t="1611826022388" class="icon" viewBox="0 0 1024 1024" version="1.1" xmlns="http://www.w3.org/2000/svg" p-id="1418" xmlns:xlink="http://www.w3.org/1999/xlink" width="200" height="200"><defs><style type="text/css"></style></defs><path d="M967.111111 0a56.888889 56.888889 0 0 1 56.888889 56.888889v910.222222a56.888889 56.888889 0 0 1-56.888889 56.888889H56.888889a56.888889 56.888889 0 0 1-56.888889-56.888889V56.888889a56.888889 56.888889 0 0 1 56.888889-56.888889h910.222222zM588.8 563.2l-153.6 0.085333v51.655111h51.029333v55.096889a76.828444 76.828444 0 1 0 52.138667 0.199111V614.968889H588.8V563.2zM512 716.8a25.6 25.6 0 1 1 0 51.2 25.6 25.6 0 0 1 0-51.2z m-76.629333-256L435.2 512h153.6v-50.972444l-153.429333-0.227556z m153.429333-102.4l-153.429333 0.170667L435.2 409.6h153.6v-51.2z m0-102.4l-153.429333 0.142222L435.2 307.2h153.6V256z m0-102.4l-153.429333 0.142222L435.2 204.8h153.6V153.6z" fill="#558ECE" p-id="1419"></path></svg>